/* XPM */
static char *_646223262536[] = {
/* columns rows colors chars-per-pixel */
"64 64 243 2 ",
"   c #080E16",
".  c #05141D",
"X  c #121419",
"o  c #14191E",
"O  c #1E1D1E",
"+  c #221E1D",
"@  c #281F1C",
"#  c #1E201F",
"$  c #27201C",
"%  c #041720",
"&  c #151B22",
"*  c #1D1D21",
"=  c #101F28",
"-  c #211F20",
";  c #1A2127",
":  c #132530",
">  c #232121",
",  c #292323",
"<  c #25262B",
"1  c #22292E",
"2  c #2B2A2B",
"3  c #332C26",
"4  c #38322D",
"5  c #232A31",
"6  c #2C2E32",
"7  c #2B3034",
"8  c #343334",
"9  c #3B3736",
"0  c #443B35",
"q  c #483D36",
"w  c #584026",
"e  c #4D4037",
"r  c #574639",
"t  c #654D36",
"y  c #69543E",
"u  c #7B5A3A",
"i  c #514944",
"p  c #5D4F42",
"a  c #6D5946",
"s  c #745B44",
"d  c #7B644B",
"f  c #7A6654",
"g  c #AC6C1F",
"h  c #805E3A",
"j  c #B77624",
"k  c #A46F32",
"l  c #A77537",
"z  c #B57C39",
"x  c #D07D1F",
"c  c #C37D2E",
"v  c #876A49",
"b  c #936D49",
"n  c #967349",
"m  c #856C56",
"M  c #906E51",
"N  c #8C7257",
"B  c #967656",
"V  c #A57C46",
"C  c #B07F42",
"Z  c #B67A48",
"A  c #A57E53",
"S  c #BC833B",
"D  c #C4832C",
"F  c #C78638",
"G  c #CC8C3C",
"H  c #D68D3C",
"J  c #CA9239",
"K  c #CC933B",
"L  c #D4933D",
"P  c #D89A3A",
"I  c #D4A72F",
"U  c #D8A635",
"Y  c #DBA23D",
"T  c #E3AB3D",
"R  c #AA804D",
"E  c #B68648",
"W  c #AB865B",
"Q  c #B48553",
"!  c #BC8A53",
"~  c #B38959",
"^  c #B88E5C",
"/  c #BD9257",
"(  c #B48965",
")  c #BC9263",
"_  c #BB9665",
"`  c #C68846",
"'  c #C58C45",
"]  c #CB8E45",
"[  c #C38C4B",
"{  c #D48D45",
"}  c #CD9344",
"|  c #CE9B46",
" . c #C5944C",
".. c #CC934B",
"X. c #CE994B",
"o. c #D39444",
"O. c #DA9746",
"+. c #D49B45",
"@. c #DC9B44",
"#. c #D2964B",
"$. c #DA934A",
"%. c #D49A4C",
"&. c #DB9C4C",
"*. c #C18D55",
"=. c #CA8B52",
"-. c #D08E53",
";. c #C49254",
":. c #CC9453",
">. c #CD9A52",
",. c #C4945A",
"<. c #CA945B",
"1. c #C6985D",
"2. c #CD9A5C",
"3. c #D49753",
"4. c #D59C53",
"5. c #DA9D53",
"6. c #D69759",
"7. c #D49C5B",
"8. c #DA9D5B",
"9. c #E39D45",
"0. c #E29E4B",
"q. c #E09B56",
"w. c #E19E54",
"e. c #D6A645",
"r. c #DCA343",
"t. c #D5A34B",
"y. c #DBA34D",
"u. c #DDAB4D",
"i. c #CDA05C",
"p. c #D5A253",
"a. c #DCA354",
"s. c #D6A953",
"d. c #DEAA54",
"f. c #D5A25B",
"g. c #DDA45B",
"h. c #D4A95B",
"j. c #DDAA5B",
"k. c #E2A344",
"l. c #E3A34D",
"z. c #E8A749",
"x. c #E3AA4C",
"c. c #F2A448",
"v. c #E5B24A",
"b. c #E2A454",
"n. c #EAA555",
"m. c #E4AA55",
"M. c #EBAA54",
"N. c #E2A55B",
"B. c #E9A65B",
"V. c #E4AB5C",
"C. c #EAAC5C",
"Z. c #F1AE58",
"A. c #E7B455",
"S. c #EBB355",
"D. c #E5B25D",
"F. c #ECB25D",
"G. c #F2B355",
"H. c #F6B45A",
"J. c #F2B35D",
"K. c #C79765",
"L. c #CC9C63",
"P. c #C9976A",
"I. c #D49D63",
"U. c #D59867",
"Y. c #DC9D63",
"T. c #DA9E6C",
"R. c #DE9F77",
"E. c #CEA169",
"W. c #D5A362",
"Q. c #DCA463",
"!. c #D6A964",
"~. c #DDAA63",
"^. c #D5A46B",
"/. c #DDA46B",
"(. c #DDAB6B",
"). c #DDA473",
"_. c #DDAC74",
"`. c #D7A779",
"'. c #DFB276",
"]. c #E2A563",
"[. c #E9A766",
"{. c #E4AB63",
"}. c #EAAD63",
"|. c #E3A56B",
" X c #E4AC6B",
".X c #EBAC6B",
"XX c #F1AE63",
"oX c #E5B264",
"OX c #EBB264",
"+X c #ECB965",
"@X c #E5B26C",
"#X c #ECB36B",
"$X c #E6BA6A",
"%X c #EDB96E",
"&X c #F2B365",
"*X c #F4B965",
"=X c #F2B46B",
"-X c #F3BA6C",
";X c #F9B86B",
":X c #E4AD74",
">X c #EAAD72",
",X c #E4A778",
"<X c #E6AC7A",
"1X c #F1AD74",
"2X c #E5B373",
"3X c #ECB473",
"4X c #E5B876",
"5X c #EDBA74",
"6X c #E6B37A",
"7X c #ECB37B",
"8X c #ECBA7A",
"9X c #F1B573",
"0X c #F3BB73",
"qX c #FABC76",
"wX c #F2B47B",
"eX c #F4BB7A",
"rX c #F1C054",
"tX c #F9C16D",
"yX c #ECC17E",
"uX c #F5C376",
"iX c #FBC372",
"pX c #F8C37D",
"aX c #DAAE88",
"sX c #E7AD86",
"dX c #E4B282",
"fX c #EDB583",
"gX c #EDBC82",
"hX c #E8BA87",
"jX c #EDB68B",
"kX c #F3BB83",
"lX c #F3B788",
"zX c #EEBB91",
"xX c #F4B490",
"cX c #F5C383",
"vX c #FBCA86",
"bX c #F5C289",
"nX c #FBC488",
"mX c #F6C88A",
"MX c #F5CB8C",
"NX c #ECC094",
"BX c #F8C895",
"VX c #F8C6A8",
"CX c #FBD0AD",
/* pixels */
"7.5X8X(. XeX{.{ $.0.#Xf.V.| D.oXoXV.Q.[ :.4.j.f.}.@XOXN.l.b.C.wXb.b.q.H P U q.B.S h 2 r 7.6.}.y.V.p.8XoXt.p.j.oXX..X}...{.m.+.o.",
"f.X.f.f.Q.X.N.C.c H a.V.a.j.a.+X$X{.Q.%X.XV.4.a.oX{.g.8.B.b.o.>XF.l.].{.P z.=X:.0 # O O 3 *.%.y.|  .@X~.$X>..X3X.X{.g.].~.OXy.b.",
"V.j.D.oXa.oXy.b.9.9.n.uXp.V.a.uX%.{.g..X4.V.#Xg.}.%X*XN.O.a.8.j.F.F.|..Xm.J.[.-.& > > > - Q 8.#X+X%X@X@X@X7.|.7.7.|.wXeX:.OXK l.",
"d.D.d.D.F.a.&.l.9.O.{.}.%.+Xa.j.V.OXf.#Xg.b.a.g.g.g.}.a.&.O.O.} e.+X<XfXp.8.|.L.v 8 ; > * *.C.l.+.V.g.vX(. XeX9X.X X X].7.V.m.B.",
"oXa.}.a.#Xb.] &.G C.p.V.V.j.p.V.j.4.} -X*X&.p.C.g.X.g.OXB.$.V.y.A.j.sXjX8..X/.7.e.a ; > O C %.n.&.V.OXeX5XeX0X5.].5.#.5.eX}.y.b.",
"7...]...}.g.5.#.] 5.&.oXa.V.p.#XV.V.p.V.iXo.B.V.V.5.V.}.*XF.&.X.u.@XjXdXW.8X<XeXr.m + > O C XXC.5.o.-X%XoXp.C.b.l.l.y.m.a.%.C.C.",
"6.|.8..X6.].]..X].3XN.}.a.N.V.5.#.V.V.F.n.0.l.B.} @XOXOXB.a.&.t.A.h.zXNXW.Q.7XN.v.f O > * z b.}.5.V.-X}.C.y.O.@.9.k.M.l.r.y.D.-X",
"7.>XeXq.5.].].].Q. XN.N.%.V.g.%.a.C.b.F.D G O.B.G }.}.V.O.g.` [ j.f.BXCX ..X/.q.l.m O * O k $.N.8. Xh.OX-Xm.x.k.P Y G.l.l.C.+.#X",
"z N.=X}.B.}.] f.2X~.OXOXN..X%.-X#.V.m.M.+.j 0.b.} O.0XO.V.e o o o t hXBX~.j. XqXH f * - O k l.9X/.@X~..X].B.y.0.z.z.G.@.n.-Xa.tX",
"` [.F J.O.l.C.g.~.f.y.a.OXV.4.5.a.C.A.y.9.9.M.n.b.&.p.5.e O > > ; + B (.D.d.].qXz.m * - O E B.g.3XW.$X8X.XV.;XH @.9.n.o.w.&.V.OX",
"c ;XD z.b.#X<X:X2.f.g.j.{.#XF 5.#.OXa.m.g.oX~.V.B.&.M.$.w @ - - * , e A.S.e.p.a.].N * - O z [..X{.a.u.2XBX:XeX~.8.%.N.C.n.V.g.A.",
"{ Z.M.@.a..X).<X4X@XpX}.}.a...5.V.-XC.V.a.~.h.OXOX&.n.b 6 9 - + > , 9 g.a.V.V.C.p.N * > O C ]..X{.a.e.2XcX X2X5X].a.p.*XC.p.C.B.",
"q.c Z.H n. X>X<X8X@Xa.V.#.] %.} V.b.a.5.p.h.oX{.C.B.&.e 4.A O + > , 6 T.U.9Xa.A.Y m - > O E 3.].{.p.t.}.{.3X@X{.}.X.oX0XV.j.OXN.",
"c c c.c n.V.7.6.].{.%.N.5.OXa.4.}.N.}.V.%X~.#X}.O.p.%.! #XL.+ + - - 5 U./.wX#X} a.M * - O z b.-X0XQ.>.a.a.OXa.#X%X{.{.{.f.j.#XoX",
"w.0.n.0.n.{..XcXQ.N.V.#X4.}.V.5.8.N.}.4.2.2.V.a.O.a.g.oX%X^ + * - , 9 S }.4.f.>X|.B O - ; l a.-X9Xg.g.V.&.y.A.a.0XoX}.oXf.{.#XoX",
"$.C.n.%.5.B.#X.X=X8.S o.z F -X#X4.-X2.u & e ;.S g.C.g.Q.{.1.$ > - > < l y.}. X,XjXm * > # ; n j.}.].9XC.J.b.B.D.#X}.f.{.$Xf.@XoX",
"&.iX.XN.[.V.B.N.}.].N.B.N.OX=X9XS #Xa < - - 7 5.V.B.} 7.@X1.+ @ - - * s g.g.3X@X/.v # > ; y X.a.a.g.9XF.y.b.*XV.C.V.0X#Xg.j.5XoX",
"b.{.#X7.=.a.C.OX].].N.%.5.5.N.] 4.8.K.*.< - * #.N.B.OX{.p.L.+ * - - < P.fXkXvXD.u.v O > $ / ~.| d.o.=X=Xo.N.N.V.-XV.OX-X%.a.OXOX",
"j.>._.T.eXg.b.V.iX|.N.-XiX4.f.N.3.].3X/.5 - & q.%.Z.n.g.C.;.+ + - , r ^.lX2X-Xm.e.v > > # _ pXoXm.+.F.0X4.eX8.g.OXN.b.F.a.*X#Xp.",
"p.4XbX_.kX4.y.| 9X|.g.B.a.F ] {..X[.9XI.1 - & N.C.o.J.5.F.2.+ @ - - 9 p.V.-X$X#XuXv * > - ^ /.V.e.r.J.|.|.9X].g.V.%.XXb.l.M.&Xb.",
"d. X/.}.{.7.@Xy.a.Q..X3Xq.5.B.B.B.5.$.V.1 - & C.y.r.l.y.M.:.@ - - - q { y.a.OXvX@Xd > > $ A #X5X%XQ.pX3.{.N.a.g.V.B.&XZ.0.g.{.a.",
"P $.].m.m.7.6.y.r.%XcX3X.X8.0.n.O.c $.5.1 - & @XQ.#X{.a.m.=.@ - - 3 t N.V.=XOX}.a.N $ ; > V #.eXvX_._.n.O.V.V.} 4.#.V.XX$.[..Xp.",
"r.g.1X+.b.9X|.a.J oX%XX.{.V.N.&.5.5./.I.1 * o U.6X7XwXK.Y.K.@ @ - - r Q.C.C.tX+Xu.d # $ > k z 5.3X4X^.&Xb.*XN.d.OXoX}.N.B.}.N.#X",
"@.5.].+.m.3XeXV.m.#X~.d.#Xd.#X@X7./.gXdX1 $ o f.{.}.=Xv B.*.@ - - , r 3.+XD.m.y.e.d # ; O k o.*XV...2X}.B.}.a.}.j.-X#X}.#X].OX-X",
"G.].|.a.b.7.>Xa.A.5Xm.u.y.+XoX{.7.gXgXdX1 - & Q...].#.n {.*.@ - - - r  X}.-Xm. .h.i O > * l $.&XOXa.j.g.#X-XV.j.0X%X..f.#X=X#.V.",
"x.4..Xm.a././.a.a.3Xb.*Xn.+.y.4.Q.}.E ,.5 > o |.Y.Y.>XT.I.U.$ - - - 0 {.#Xg.~.1.7 2 - - + l z.Z.*Xd.p.}.#.#X#Xa.a.V.a..X9X#Xa.n.",
"+.]..X}.y.6XgXa.m.].B.n.$.%.} F m.a.r.a.5 - & OXm.&.b.g.n.>.+ - - - q XX4.Q.:.P.X ; + ; $ l M.l.x.F.F.$Xf.iX#XV.%.}.V.Q..X5.b.M.",
"r.>X/.} a.<X/.#Xd./..X=X}.8.5.V.V.M.J.x.1 > + s j P r.t.Y E + - - , q q.&X|.).E.X $ + > * z y.M.b.d.oX#.#X0X*X&.m.a.oXg.f.g.V.A.",
"a.3XnXf.#X7X,Xf.j.2X#X=X}.:.~.~.5.j.b.5.5 - - M }.} 3.g.6.<.+ + - > q w.n.3..X,.o , O > ; z L F m.tXj.%X}.V.a.J.l.&X&.[.mXp.C.M.",
"C.3X>Xa.-X|.,X .p.MX{.5X~.(.cX^.8X6X X/.5 - & ]..X XY.I.=.K.@ * - , 5 w.O.w.K.7 O > - > ; S +.&.OX#X~.}.}.C.M.Z.9.o.&.V.eXg.M.x.",
"X.kX>Xg.j.>X,X{.D.bX@X~.!.2X4X(.gX(./.:X1 - & o.b.*XV.V.] ;.+ + - - < a ] z 8 - O > > $ e &.m.*X%X@X(.a.O.l.0.@.9.F OX{.{.N.b.F.",
"4X(. XQ.{.Q.[ :X6XcX3X8.=Xb.+.m.M.A ;.| 5 > o b.n.g.}.:.#XK.+ + - - - - X - - - > $ ; 1 ! b.F.%Xh.MXNXH x c.0.Z.b.&.B.n.C.{./.2X",
"(.8XQ.7.[.0X6. X/.^.6.5.}.}.+.&.i.n v E ; >   ;.F.#XN.7.#X/.$ O - - O - > , - + O o h K.B.}.m.V.h.MXdX%.{ N.].{.{.j.+XD.u..X5XpX",
"8XcX.Xg.7.8.2X(.nX8XY.8.4.V.O.] y.*XV < > $ X a a.N.}.~ 4.Q + + - - + , > 2 4 0 a #.*XB.n.m.*Xa.j.:XhXT.K.6X/.6X4Xf.t.| rXoXN.#X",
"~.eX3X~.Q.8.{.:.W.wX8.XXN.8.=XOXj.#X<.3 > > > > 8 l C 9 a.! + + - - ; A A K.V.N.p.H.M.w.XXn.*Xy.a.7.:XaXzXBXVXbXE.@Xh.$XA.m.a.C.",
">.p.{.{.Q.4.9XeXeXE ] V.].N.#X].{.3X X) 4 > > > > ; O ; {.;.+ + - > h ].}.V.f.%X{.Z.0.&.N.w.C.m.V.cXcXjX'.MXMX'.!.$XoXoXoXF.*Xm.",
"}.4.%X}.X.8.3XQ.9Xg.4.{.] 3.=X0XwX2XQ.3X_.V r ; % . . = a.I.+ + + , u 7.5.{.].#Xg.@.l.$.n.a.b.B.b.cX.X8X>.@XuXX.#X#X}.}.OXo.*XL ",
"V.g.@X4.>.Q.g.Q.3.5.{.=X{. X/.3XeX:.Q.2X Xg.V.4.f.V.4.f a.[ + + - - s z 6.N.g.#X} L 0.q.8.B.+Xa.C.4.].oXt.+XiX&.O.XXN.{..XOXC.C.",
"*XV.uX#Xf.f..X].] V.V.#X.X{.].eX X[ 3X}.8.g.}.5.%.5.V.Q.V./ @ - - , v =.].{.-X+XV.L $.}..X#Xg.t.g..X1X4.V.F.m.$.$.n.B.B.N.-XoXV.",
"C.N.=XX.g.@X3Xg.3.&X}.V.g. X X XQ.W.~.j.}.B.{.#.a.OXV.f.g.2.$ - - - v >X9X#Xb.F.A.0.5.=XeXeXj.D.V.0X].3.].}.b.&.&.n.&.OX=Xj.uX4.",
"Z.a.}.' %X5X@Xg.N.b.OX#X{.7. XQ.~.@X~.}.=Xn.%.B.{.}.a...OXL.+ + - , v 6.8.4.C.m.M.F V..X X Xg.a.=XE =.T.>X9X8.V.iXb.&.C.d.Q./.Q.",
"<X^.|.3.}.B.n.J.m.t.6Xh.@X9XK }.6.J =X6.y.j.oXoX#X3X[ K.fX`.@ * - , N .Xy.A.y.=X.X]..X{. X~.'.2X:X^.).aXVX5X#XeX-.M.O.=XU.sXsXV.",
"I.=.7.g.5.o.] b.V.F.vXcXf.%.3.&Xl.8.C.] g.oX%X$X~.4X^.^.bXaX+ - O , v 0Xy.y.y.9X>XV.-X#Xj.@X8X~. X6X4X_.4X+XU v.T &X[.}.r. X/.OX",
"3X Xg.#X%.b.&.F.m.d.d.,X#Xm.kXOXy.lX%.b.7.@XpXeX@X2X>XL.(.E.+ - + , B  X+Xm.-X0X:XD.}.OXV.t.oXf.f.@X(.jX). XG.U l.wXxXR.A.*Xa.*X",
"~.j.g.V.b.n.y.V.F.#X-X|.g.b.wX` N.|. XQ._.~.W.2X4X!.4X1.1.M O - > - n j.j.X.@X8X6X}.-X%.| F.+XV.X.7.(.fX7XwX}.b.V.lXR.<X@X{.m.y.",
"j.a.V.V.l.n.m.b.m.a. X+X].BX$.g l V.kXjX@X2X@X3XE.2X5XE.0 q - - > , ~ #X{.~.@XcX_. X{.5XV.p.V.-X{.2XcXV.+.z.&.g.{.u.U d.<.:X{.+.",
"oX~.V.+.m.&.b.n.} &.^.*X.XwXl.S T.OX<X^.@X3X X@XB (.5X_.V o - > > , ! {.(.f  X6XcXmX~.Q.0XB.g.N.9XnX6Xl.k.r.V.0X8.rXI v.7XfXI.o.",
"oX{.{.m.n.;XC.A.&.y..XQ.#X}.].3.N.].0X X2X X4. X5Xr f.^ w * - > + * e {.v p ^.4XvXbX:Xf.#X}.5.].9X7X<X=X[.].wX3X.X2X6XfX7XxX).%.",
"5X{.7.}.&X0XO.b.y.a.s.).%Xd.|.O.C.T.a.g..XV.5.}.g.& i v > + - - > O < 2 > m :X(.$X'.i.%X&X&X&X&.N.3XwXF.N.>X>X+.| :XVX<Xy.kXfXn.",
"I.|. X#XV.a.+.n.&.A.~.:.0XV.Q.#.b..X%.5.#XB.o.&.O.7 O # - - - - > * $ > ; `.fX{.j.!.@XD.l.M.G.M.&.N..XY @.}.N.| A.D.5X+Xx.#X].K ",
"6X8X9X{.}.B.&.&.C.y.6X$XcX Xy.}.N.M.].].M.[ n.l.P s O ; > O O - > * > > p sX6X2X/ ^ oXd.l.z.T G.k.m.D.+XV.eXsXVXBX| Y j.xXjX-Xx.",
"{.2X X7.W.g.g.5.B.o.{.#X{.g.0X-XOXV.;XN.o.r E y.o.! O $ - - - - * $ > * E V.0XQ p !. XuXtXF.u.D.D.m.$X#X%X3X3X Xd.e.A.!.VXCXBXj.",
"].#X{.~.z ' 8.n.n.H a.#XoX~.{.%Xf.b.V.*X&.3.r E oX;.3 $ + O - > > > > , R V.,.; K.f.eX%XoXoXV.tXd.j.oXL.6XzXzX7Xg.oX(.hXVXVX<X4.",
"N.&X}.qX` j n.Z.Z.9.=X#X}.V.g.0X4.4.} N.] C.n 2 ;.R 2 O - - - - O * > , ~ W 3 s yXeX.X4X#.#Xp.V.V.+X}.(.cXfX:XwXj.{.p.6XR.T.j.Q.",
"q.n.N.q.5.g 0.M.c.c.a.{.#.g.V.g.~._ OXg.5.[./., < 8 > + > > + O > * O > 6 * 1 dXMX/.|. XW ~.OXV.#X#X4.t.e.j.V.y.A.e.r.m.m.S.N.|.",
"3.8.[.N.{.iXC.H.M.9.m.} #X}.C.%.7.R M (.5..X0Xm * > > ; > * - > > $ ; $ > , ! (.2X6.,.b P.{.f.#XOXg.{.j.~.{.2X[.iXXXiXS.a.C.[.lX",
"/.2XvXQ.7.uXa.V.M.y.%.4.a.C.&X&XV.#X1.r t .X5X4Xa > > - - - - - > - - > - a 2X:.( s r 7.}...7.#Xg.g.3X X8X2XfX|.U.1X.XN.5.5.[.1X",
"^._.6X8X~.~.5XuX~.5Xt.p.a.+XB.C.N.#X2X:Xa 8 W K.m - - - - - - - - > > - > f ^.W q s kX{.{.].a.].].{.9Xa.t.uXC.&.{.;XA.H.v.#.a.G.",
"_.'.kX(.(.cX2XyX4XyXj.V.tXF.@.n.b.Q.W.yX^.,.q 4 4 , - - - - - - > - > - - 4 q 0 <. X9X}.N.OXV.N.]..XqX Xf.%.y.b.q.;XC.K v.C.r.U ",
"8X(.vXf.{.5X.XpX5XW.j.F.F.O.M.a.#XpX(.dX4X>.^ n > * - - - - - - - > > - > - b E B.].g.-X8.b.V.N.N.}.3.P.lXkX#X9X|.,XfXlX@Xa.m.x.",
"g.@XV.N.V.B.}.#X3X4X4.&XM.@.l.o.B.eXL.`.'.(.~./ 6 + > > - - - @ - - , $ - 4 ! q.=.` [ ].OXb.b.OX#X5.g.xXfX=XV.C.].3X).8Xi.s.@X,X",
"~.8X/.(./. XW.~.uX$X].].0X&.n.c.n.&X[ Z / K.N 5 .   X O - - - , , + O + X . : B W ( ( ^ OXOXV.n.#.OXC.eX%X%XN.V.V.eX7.5X~.tX].6X",
"(.8X2X_.'.'.!.oXD.m.:.:..XN.}.&XM.G F n.&XB.{ b.~.B d r < O O O O > q y m (.>XBX'.).kXQ.C.*X0.{.+.%.m.p.a.~.3X6. X.X X>XeX4.V.-X",
"3X{.6XbXbX8X2XpX#Xa.@X~..XI.N.g.B.8.o.OXC.b.n.&.V.(.4XdX^ K.;.,.I.2.' &.#XiXoX{.>.6X#X} y.tX&.].qX#X-X@X7.0X#X9X4.>X{.~.@X#XV.#X"
};
