/* XPM */
static char *_646224719558[] = {
/* columns rows colors chars-per-pixel */
"64 64 219 2 ",
"   c #180F13",
".  c #171516",
"X  c #1A1316",
"o  c #1D1719",
"O  c #1E1A1C",
"+  c #221C1E",
"@  c #241E20",
"#  c #242122",
"$  c #292526",
"%  c #2B2728",
"&  c #2D2A2B",
"*  c #312C2E",
"=  c #5C4023",
"-  c #624B36",
";  c #B56D18",
":  c #AB6E29",
">  c #B8772D",
",  c #B57A2C",
"<  c #AF6B30",
"1  c #BA7D36",
"2  c #9B7446",
"3  c #A57B4C",
"4  c #BE8238",
"5  c #C6852D",
"6  c #D28A2C",
"7  c #C58132",
"8  c #CC8631",
"9  c #CB843C",
"0  c #C68C3C",
"q  c #C88939",
"w  c #CD8E3D",
"e  c #D48A38",
"r  c #D28D3E",
"t  c #CE943C",
"y  c #D79736",
"u  c #D3943E",
"i  c #DB953F",
"p  c #D39B3D",
"a  c #D99B3D",
"s  c #DCA62B",
"d  c #DCA838",
"f  c #DDB03A",
"g  c #E3B636",
"h  c #A98355",
"j  c #C58A43",
"k  c #C38947",
"l  c #CA8D45",
"z  c #CB8E4A",
"x  c #D38D44",
"c  c #CD9446",
"v  c #CE9946",
"b  c #C4914B",
"n  c #CC944B",
"m  c #CF9C4C",
"M  c #D39445",
"N  c #DA9544",
"B  c #D49B44",
"V  c #DB9B44",
"C  c #D3954C",
"Z  c #DB964C",
"A  c #D49B4D",
"S  c #DB9C4D",
"D  c #CA8D50",
"F  c #C69253",
"G  c #CB9453",
"H  c #CE9952",
"J  c #C79458",
"K  c #CD945A",
"L  c #CE9C5A",
"P  c #D49651",
"I  c #DA9752",
"U  c #D49B53",
"Y  c #DB9D53",
"T  c #D19559",
"R  c #DD9658",
"E  c #D59C5B",
"W  c #DB9D5B",
"Q  c #E49D44",
"!  c #E19E4C",
"~  c #E09E54",
"^  c #E19F59",
"/  c #D2A146",
"(  c #DCA244",
")  c #DCAA47",
"_  c #D6A14B",
"`  c #DCA34D",
"'  c #DDAA4C",
"]  c #D5A154",
"[  c #DCA354",
"{  c #DEAA54",
"}  c #D5A25B",
"|  c #DCA45C",
" . c #D5A959",
".. c #DDA95C",
"X. c #DEB25D",
"o. c #E2A443",
"O. c #ECA442",
"+. c #E3AC44",
"@. c #E2A34D",
"#. c #E9A74B",
"$. c #E4AB4C",
"%. c #EBAB4C",
"&. c #F2A64B",
"*. c #EAB04D",
"=. c #EBB948",
"-. c #E2A454",
";. c #EAA654",
":. c #E4AA54",
">. c #EBAA55",
",. c #E3A55B",
"<. c #EAA65B",
"1. c #E4AA5C",
"2. c #EAAC5B",
"3. c #F2AE55",
"4. c #F1AE59",
"5. c #E3B255",
"6. c #EAB254",
"7. c #E5B15C",
"8. c #EBB25C",
"9. c #E8BC5E",
"0. c #F6B257",
"q. c #F2B35C",
"w. c #F4BB5F",
"e. c #D59C64",
"r. c #DA9D63",
"t. c #D99B65",
"y. c #E19E61",
"u. c #E19F6B",
"i. c #CEA168",
"p. c #D5A363",
"a. c #DCA463",
"s. c #D5AA65",
"d. c #DDAA64",
"f. c #D5A268",
"g. c #DCA66A",
"h. c #DEAB6B",
"j. c #DDA473",
"k. c #DEAC74",
"l. c #DEB079",
"z. c #E2A563",
"x. c #E8A766",
"c. c #E4AB63",
"v. c #EAAD63",
"b. c #E2A56B",
"n. c #E4AC6B",
"m. c #EAAD6B",
"M. c #F2AD66",
"N. c #F2AF6B",
"B. c #E5B165",
"V. c #EBB264",
"C. c #EEB965",
"Z. c #E5B16C",
"A. c #EBB36B",
"S. c #E6B96A",
"D. c #EDB96D",
"F. c #F3B564",
"G. c #F9B565",
"H. c #F4BB64",
"J. c #F1B46B",
"K. c #F3BA6C",
"L. c #F9BD6F",
"P. c #E3A671",
"I. c #E9A574",
"U. c #E4AB73",
"Y. c #ECAE72",
"T. c #E5AC7D",
"R. c #ECAD7B",
"E. c #F1AE79",
"W. c #E5B273",
"Q. c #ECB473",
"!. c #E6B871",
"~. c #EEB974",
"^. c #E5B37B",
"/. c #EDB47C",
"(. c #EDBA7B",
"). c #F2B573",
"_. c #F3BB74",
"`. c #F8BC75",
"'. c #F2B37C",
"]. c #F3BB7B",
"[. c #F9BE7C",
"{. c #F2C16D",
"}. c #FEC36F",
"|. c #F4C274",
" X c #FBC273",
".X c #F5C27C",
"XX c #FAC37B",
"oX c #FBC97D",
"OX c #EAAC82",
"+X c #E8AA88",
"@X c #F2AD82",
"#X c #ECB382",
"$X c #EEBB83",
"%X c #EAB986",
"&X c #EBB28B",
"*X c #F3B683",
"=X c #F4BC84",
"-X c #FABE83",
";X c #F2B58C",
":X c #F4BA8C",
">X c #E4AA92",
",X c #F1AD95",
"<X c #E7B194",
"1X c #F7BE97",
"2X c #F4C482",
"3X c #FAC483",
"4X c #FAC985",
"5X c #F4C38C",
"6X c #F8C589",
"7X c #F8C889",
"8X c #FED08C",
"9X c #FBC591",
"0X c #F3C992",
"qX c #F6C699",
"wX c #FCD493",
"eX c #FCD598",
"rX c #F3C0A9",
"tX c #FECFB6",
"yX c #FFD2BE",
/* pixels */
"E ~.W.h.Y.Q.Z 9 Q M.] 1.A ..C...n.G } n | [ c.B.A.[ S >.R.x.;.@ @ # # ,.Y y O.i R y.,.:.1.U (.X.] { B...a.V.n ..1.B Z 2.-.Y S -.",
" .A ] } } 1.v.N e S c.[ ..{ |.B...n./.1.| ] V.% ,.,.2.! E K.` + @ @ + N.Z y 6 x R Y.U U _ n !.d.D.F A..X| x.m.d.v.@.-.F.,.[ -.-.",
"1.7.7.B.{  .S Q Q <.K. .7.{ D.[ n.,.} ,.C.,.+ @ @ ~ M ~ z.5.:.@ @ @ + n.,.( 3.N # $ 1.-.:.C.| ~.s.a.a.r.z.'.Y.G V.M -.S Y C v.F.",
"{ 1.{ B.7.0 @.N N 2.B.A B.[ :.B.A c.1.S C | + + @ ,.S V ] B + + @ # + g.A V Y @ @ + & [ B ..x.7Xn.3X).m.z.z.n.z.z._ 1.8.v.v.K.-.",
"B.} m.Y K.M Z w 2.c 1.V.[ [ V.1.Y | oX1.1.$ @ @ @ % -.<.1.5.X + @ # @ g.v.$.a.+ @ # + 1.S ,.C.A.[.v.v.,.-.M M _.V.2.1.V.V.,.1.[ ",
"z E z.^ z.P z.W a.v.V.[ v.[ ..A { A }.N -.+ # @ @ + 8.-.c ( X @ @ + # /.v.' o @ @ # + 1.1.P K...B.[ V q.@.-.>.` A @.1.v.1.P Y [ ",
"z.N.x.z.D ^ Y.a.n...-.U ,.,.C 1.2.8.S V u # + @ @ X r M.m 8.o @ @ + @ b.Y 8.+ @ @ + @ ,.P A.B.V.8.;.( y y %.$.( :.1.K.| v.v.,.[ ",
"3 N.[.~ G.P n Q.a.A.V.Y A.P V.[ { :.B ; N + # @ @ + 2.S -X,.+ @ @ # + I.J.Y @ @ @ @ O v.W n. .c.c.-.o.%.Q 0.#.-.H.c C.B.c.z...V.",
"z Y Z 2.@.1.| ..} ] 1.V.,.| Y A V.$.` N #.+ @ @ @ X S ~ I.x + @ @ @ 2 b.K.$ @ @ @ # @ E W.d.!.[.z.2.2.V a ;.i S S 1.K.| A.L.1.B.",
"j G.5 o.v.z.U.h.L ..[ 1.J.0 Y c.:.2._ 1.1.@ @ @ @ X ;.G.'.z.+ @ @ + _ [ ,.@ @ @ @ @ # x.x.] { O @ n.].P Y [ -.1.1.:.2.1.1.[ -.A.",
"x 3.#.V v./.OXf.s.oXv.V.[ j -.v.V.2.[ s.d.# @ @ @ + #.N x Z @ @ # o [ 1.:.@ @ @ # + 2 x.x.{ # + @ h./.A.[ ,.B.8.S 1.:.2.:.[ V.A ",
"Z 7 >.a 2.Y.P./.Z...1.C c n C [ 1.A Y ] B.@ @ @ @   <.,.+.o.+ @ + o ].[ 8.+ @ @ @ @ Z z.n.[ + + @ Z.Z.,.U .._.1...V.-.-.2.-.-.M ",
"> x Q e 2.W T W n.P 1.U V.[ [ 1.v.1.V.D.v.@ + @ @   J.Y @.` + @ @ o ].A.0 @ @ @ @ + Y J.`.$ + # @ 1.,.K.V.c.......A.V.[ F.F.-.M ",
"! ! ;.~ <.,.3Xz.v.1.1.P ,.1.Y z.,.c.} c...@ @ @ @ + m.G U F @ + @ o A g./.+ @ @ @ O ' V.J.+ @ @ @ [ 1.1.A.B.B.d.d.D.A.| F.>.;.-.",
"S G.! I 1.1.v.v.,.1 A > c XXc.| ).).n XX} + @ @ + + d.Z.n.$ @ @ @ X v.b.R.+ # @ @ o 1.] v.# + @ + -.F.V.x.c...Z.} Z.v.V.,.@.-.S ",
"Y  Xm.y.P ,.2.,.z.v.[ 1.1.c.I j `.z.n K.I @ @ @ + # c.d.8.+ @ @ @ X n..Xc.@ @ @ @ o U v [ # @ @ + :.F.1.1.C.C...] |.1.[ 2.q.8.2.",
"1.H a.t.E 1.8.v.r.1.,.v.S ..U P r.].a.z.W @ @ @ @ @ ,.1.6.o @ @ @   /.oX' @ @ @ @ + .X] 5.+ @ @ # J.C L.V.[ L.` V.V.[ -.-.F.F.` ",
"] Z.%XU.7X[ M A.Y.z.V.K.0 P ,.x.J.].Q.U & @ + @ @ @ q.B :.o @ @ @ . D.V.X.@ @ @ @ $ W.c.@.@ @ + + XXU ,.Y [ -.-.:.V.1.2.S -.,.1.",
" .(.k.j.W...:.1.r.z.V.A P z.,.z.W m.r.P % @ @ @ @ $ F.V a.o # @ @   :.D.4X# @ + @ % W.V.8.# + # @ a.| W 2.2.-.3.V F.! -.-.7 ,.V.",
"( C 1.$.1.U.A :.1.-XQ.m.~ $ . 8 8 ;.q.d.# @ @ @ @ # ;.a #.o @ @ + X V.c._.+ @ @ @ } U ~.7X# # + @ ;.{ l S [ M.I z.n.A :.2.-.,.v.",
"o.,.A.( V.D x.p 1.].H d.v.O + + P W a.%X+ + + + @ % u.x.! o @ @ @ X 1.}.B.@ @ @ @ J.4 I (.O @ @ @ F.{ ] V.v.v.~ m.c.V.{ 7.1.A.2.",
"V I W ` -./._.( 1.Z.{ C.& # # O j.5XT..X+ + @ @ @ % <.-.W + @ @ @ + 2.:.) @ @ @ @ -.q v.v.+ @ @ @ ,.1.[ C.v.v.J.,.V.L.-.V.1.n...",
"8.z.x.:.A P.z.' A.V.' ` . # @ O $X$X%XA.+ @ @ @ @ % 2.Y W O @ @ + + K.{ A @ @ @ + -.V >.J.+ @ @ @ A.| c.|.[ H m.m.C 7.'  .A.].n.",
"@.U m.7.P ^.W { B.,.H.:.o + # # & b m.u.+ @ @ @ @ % b.y.c.+ @ + + + ..d.a.@ @ + + Z ! 4.H.@ @ @ @ C.V.[ [ n.A.A.J.-.;.-.8.V.h.n.",
"B m.m.-.E qXd.:.} x.<.Z + + @ + # ' ` 2.+ + + @ @ * 3.u 5 # # # @ # z.K $ @ @ @ @ -.;.@.@.O @ @ + |.2.V.,.c...z.} -.>.8.8.A.n.n.",
"_ Q.b.A x.^.d.C.d.m.M.v.+ + # # # @.o.$.+ + + + @ @ V o.8.# # + # + W b.@ @ @ @ @ 2.i N ' @ @ @ + v.F.-.-.[ | a.| 2.6.$.$.1.m.a.",
":./.-X1.m.T.E m A./.[.m.+ # # + & ,.^ R + + @ @ @ @ * m.- @ @ @ @ @ # @ @ @ @ @ @ @ V N + + @ @ # 2.-.q.;.1.,.8XY 2.$.B 0.~ ~ v.",
"' =Xb.[ A.T.g._ wXs.B. .+ + @ @ U.R.t.,.+ @ @ @ @ @ @ @ # @ @ @ @ @ @ @ @ @ @ @ @ @ O + @ @ @ @ @ :.0.a e M 1.x.,.1.%.#.@.! <.M.",
"g.h.b.E A.E U.W.(.3XW N.+ + + # { _ _ ;.+ + @ @ @ @ @ @ @ @ # + @ @ @ + @ @ @ @ @ + @ + @ @ @ @ # O.Q 4.u -.<.-.,.E n.!.a.h.A [ ",
"W.W.n...A.W E W.g.b.W K @ @ + + :.:.:.@.+ + @ @ @ @ @ @ @ @ @ + @ @ @ + @ @ @ @ @ @ @ @ @ @ @ @ + ;.2.^ U K.2.:.v./.].h.d.d._.n ",
"W..Xd.E | m.n.W.^.E W * @ @ @ o V.] 1._ + @ @ @ @ @ @ @ @ @ + o X + + X X + @ @ @ @ @ @ @ @ @ @ @ g.g.(.d.X.{ 5.:...`.~.W.4X} B.",
"Z.2X/.,.W a.r.p.(.a.A.* @ + # + 1.z.A.U + + @ @ @ @ @ # @ * ~ <.;.! F.2.,.Y ! @ @ @ @ @ @ @ @ @ @ 0X0Xf.s. .X.9.7.,.1.,.c.} n.Q.",
"n ..m.a.a.m.).Q.K k z.* + + + X Q.n.n...@ @ @ @ @ @ + ~ ] B.V.[ <.M.2.| c.B.0.S ~ + @ @ @ @ @ @ @ qX0Xp.!.c.{.{ 8.q.2.Y C.W b.a.",
"B.P V...U n.n.A.a.} z.< + + + + b.g.[.A.+ @ @ # @ # v.4.V.2.K.Y Y Y x.d.V.| i S <.~ + + @ @ @ @ @ A.Z.,.V.J.n.J.S H.c -.z.| _.W.",
"v.| 1.} H d.| } U 1.K.z.@ @ + + E d.!.E @ @ @ + @ 2.[ -.B -.K.,.k U a.1.V.q Q N z.1.C.+ @ @ @ @ @ K.K.B <.<.^ m.V.2.2.1.P J.Q.).",
"F.v._.n.H Z.x.C ,.2.L.v.+ @ +   a.B.n.k @ @ # + 1.V.-.{ B S # O O O + O o { S Z `.)...$ @ @ @ @ @ :.-.@.-.~ <.,.J.V...n N.XXC ,.",
"2.-.1.n ~.A.m.C v.v.| | + + @ X d.c.A.F @ @ @ @ V.1...C.F.@ @ @ @ + @ @ + @ @ ,.~.].c.v.+ @ @ @ @ x.I @.4.-.:.C.| (.| `.< M.~ -.",
"A.[ v.H _...n.Y Y A.V.x.+ + @ X .._.{ 1.@ @ @ v.c U D.~.+ @ + @ @ @ @ @ @ @ @ & b.A.} } ].# @ @ + Q.z.K.,.-.2...h.e.| U : Z F.-.",
"f.r.K E v.@.-.H.[ Z.B.Z.o + + X A z.1...@ @ @ ~.J U.=X@ @ @ @ o o O o + @ @ + O D.Z.2XW.W.# @ @ @ B.7.:.~ 4.1.Y OX:X2.$.S ~ B >.",
"b.K W <.x M { -.{ {.%X..+ @ @ X Y.( e.v.+ @ @ W.h./.%X+ @ @ $ /.~.1.$.B.@ @ @ # %  .d...d.# @ @ @ :.f s >.*XI.$.8.P {.-.z.b.Y H.",
"Q.B.1.,.,.' 2.F.1.B.b.B.X @ @ X t.[ e.p.@ @ @ W.W.L g.+ # o /.x.B.V.] |.W.@ @ @ @ { F...n # @ @ @ ].w.t ).,X+Xm.7.1.6.1.u.OXy.2.",
"..H [ :.@.2.-.S :.z.c.c.X @ + X /.9X3X~.+ @ @ Z.W.d.h.@ # = ,.| J.c.} c.(.# @ @ @ [ { K.B.# @ @ @ _ C 1.C.A [ a.^.1.:.8.9X@Xc.q.",
"B.1...Z >.2.-.-._ t.{.x.$ + + + V.+XD.W.+ # @ W.].d.d.@ + X S v.A.n.!.h.(.# # + @ 1.,.x.m.@ @ @ # *.,.[.$.g f h.OXt.t 6.J.c.` w.",
"B...1.{ >.2.8.S [ z.1.A.x.# # + ).a.^.B.+ + # .X..V._.@ # + , 8.n.n.(.f.(.# @ # @ 1.Y c.).+ @ @ @ N.Y.].W.Z.(.(.:Xj.A $.$.>.#.$.",
"_.d.[ J.F.[ [ S [ ` j.D.1.@ + # t.{ g.v.+ + + G.,.1.1.1.| S , 8.|.].:Xk.% + # + # 2.G.-.,.@ @ @ @ '.x._ d.1X&X[ ].#X:.%.%.>.a *.",
"e.b.m.J.-.S -.` 8.1.J ~.7.@ + + # Z m.8.+ + @ - 2.2.-.,.[ :.$./ U *XOX(.+ @ + + ,.@.0.%.Y @ @ @ @ v.] / 5.Z.V.:.v.a.p H.L.y.F.( ",
"/.(.Q.z.v.Z S ;.Y W.S..Xg.+ # # @ z.-.>.2.@ @ # 2.-.2.M ,.V._ :.V.j.#X# @ @ @ + 6.o.O.*.( @ @ @ # *X>XtXd.d *.@X;XV.$._ E.R.,.$.",
"c.Z.n.F s.H ..-.w ,.C.c...# @ @ @ J.-.r 2.# @ @ + ,.Y -.D.} V.:.2.;.# @ @ @ @ .XA.C...7.8.# @ @ @ ~.~.' ) X.s.rXyXqXz.g.#X1.:.g.",
",.A.v.,.: j 1.;.e ~ A.V.1.+ # + + ,.Y -.,.# @ + # @ @ C E c.V.% + $ @ @ @ + @ A.D...7.{.1.# @ @ @ 1X#XU...s.T.rX<Xa.U 1.C.5.8.K.",
",.v.c.v., 7 >.0.&.2.K.} z.# # @ @ + [ I J.J.+ # @ # @ + O O + + @ @ @ @ @ + U.].H [ v.| V.@ @ @ @ n.m.c.:._ B.a.d.1.n.$.=.{ B.+.",
"Y ^ <.I ,.! 4.0.Q -.C [ 1.O # + @ + ..z.v.).U # # @ @ @ @ @ @ @ @ @ @ @ + W.t.E _.A.v...+ + @ @ + ..| 8.2.:.6.` 8.z.E.-.$.n.U.S.",
"E a._.W _.K.A >.V -.n J.K.% @ @ @ @ $ ,.).m.E 3 + @ @ @ @ @ @ @ @ @ @ @ g.h.Y.n.m.Q.Y h + + @ @ o 5XR.'.W `.J.-.2.b.E.Y.Q.^.;Xj.",
"e.^.$XZ.a.c._.B.B.U :.c ,.;.+ # @ @ @ b.n.~.} a.3Xz.o @ @ + # + @ + & W.z.U.[.).| c.C # # + # @ $ oXU ).).M.K.*.M 1.F.n.R.n.W.&X",
"l.k.$Xh.s.Z..Xs.2X..[  XC.1.+ + @ @ @ $ ].L s.(.a.m.D < + # # O # `.| A.m.Y.m.).z.J.$ + @ @ @ + v p $.@.4.K.a +.-.` d 1.3X' v W.",
"(.W.2X| Z.~.].4Xs...F.8.u ;.X @ @ @ # @ $ Z.Q.Z.A.n.x.R /.G Z.Z.d.m.m.1.I M.| m.V.$ # # @ @ + + /.].x.m.b.*X(.~.1.' $.` n B ' D.",
"s.m.v.1.1.1.m.Z.(.} V.;.V @.* @ @ @ @ @ @ * !..Xa.XXz.R D.a.7X} ~.z.,.^ ^ x M 1...@ @ + @ + # . #Xm.V.U b.#X$X} ] A.U.D.] a.W.H.",
"d.(.e.h.p.W.} D.|.} | _.S ;.! + @ @ @ @ @ @ @ a.a.s.h.z.).z.z.z.} /.a.n._.E U.@ # + @ @ @ @ + & A.V.-.[ _.n.!.B.D.c.R.Q.F j.j.(.",
"h.(.W.k.^.(.} B.{ U D A.1.J.4.@ # + @ @ @ @ @ @ * i.j.Q.n.y.v.x.l ,.!.W.wX% + + + # @ @ @ @ + ..] ].| W m.n.h..X} 1._.Z.a.W.U.b.",
"D.d.(.3X7X(.].oX1.Z.n.n.a.z.| * + # @ @ @ @ @ @ @ @ # # # 3 L.D & # # # @ @ @ @ @ + @ + @ @ $ v.} `.).z.z.m.n.c.A.,.Z.E U.6XwXz.",
"[ | a.~.W.n.Z.1.V...X.a.h.=X(.W.O @ @ @ @ @ @ @ @ @ + + @ @ + @ @ # + + @ @ @ @ @ @ @ # @ @ @ m.h.} m.).| z.~.~.~.a.} a.(.L A.J.",
"}.M A A.~.a.c.x.B.M 7...W.=XU.(.] + # @ @ @ @ @ @ @ @ @ @ @ @ @ @ @ @ @ @ @ @ @ + # + + + @ n.g.U.].).m.z._.v.D.} W.p.W.].2X_.V.",
"3.S J.1.c.| A.a.| :.:.[ z n.G n.] & @ @ @ @ @ @ @ @ @ @ @ @ + @ @ @ @ + @ @ @ @ # + @ # # [ :.].W.].x.K.J.)._...!.p.(.g.W.4X..S ",
"N ;.2.-.c.d.z.a.z.1.;.1.W z.z.,.F.H.{ @ @ @ @ @ @ @ @ @ @ @ @ @ @ @ @ @ @ @ @ @ + # # # -.:.6.g.eXn.x.V.v..._.a.h.(.p.U.n.W.Z.V.",
"S -.[ [ c.B.n.a.(.m.n.| a.m.m.z.V.v.8.Y @ @ @ @ @ @ @ @ @ @ @ @ @ @ @ @ @ @ @ @ @ # @ 8.Z 8.a W.(.Q.[ c.1.A.n.].a.].Q.W.k.(.|  X"
};
