/* XPM */
static char *_646223281104[] = {
/* columns rows colors chars-per-pixel */
"64 64 236 2 ",
"   c #00001A",
".  c #000C1C",
"X  c #03121E",
"o  c #0D141D",
"O  c #14171E",
"+  c #15181F",
"@  c #1D1B1F",
"#  c #211D1F",
"$  c #27211F",
"%  c #0E1821",
"&  c #1E1D21",
"*  c #231F20",
"=  c #252121",
"-  c #2A2322",
";  c #352A23",
":  c #322924",
">  c #3B2D23",
",  c #3F3327",
"<  c #443428",
"1  c #4C3C2C",
"2  c #533A27",
"3  c #513D2B",
"4  c #56422D",
"5  c #5C442C",
"6  c #5C4833",
"7  c #62472B",
"8  c #664A2D",
"9  c #79562B",
"0  c #664B34",
"q  c #6C5134",
"w  c #6B553B",
"e  c #735433",
"r  c #7C5C39",
"t  c #775D45",
"y  c #7B6343",
"u  c #AA691C",
"i  c #845F34",
"p  c #996527",
"a  c #886539",
"s  c #966B37",
"d  c #98723E",
"f  c #B2712D",
"g  c #AA7637",
"h  c #B57B37",
"j  c #D07D1F",
"k  c #C37D2E",
"l  c #8D6742",
"z  c #936E43",
"x  c #997348",
"c  c #99754C",
"v  c #967554",
"b  c #A67A47",
"n  c #B17B46",
"m  c #A07B50",
"M  c #C17F44",
"N  c #BE8537",
"B  c #CC8535",
"V  c #CF8932",
"C  c #C3863A",
"Z  c #C98739",
"A  c #C58B3D",
"S  c #CD9132",
"D  c #CC943C",
"F  c #D4933C",
"G  c #D89738",
"H  c #E29939",
"J  c #D4A72F",
"K  c #D8A635",
"L  c #DCA33D",
"P  c #E4AC37",
"I  c #AC804A",
"U  c #BA8545",
"Y  c #B2834A",
"T  c #B98748",
"R  c #BF924C",
"E  c #AC8655",
"W  c #B88B58",
"Q  c #BC915A",
"!  c #BE9264",
"~  c #C68D44",
"^  c #CA8D44",
"/  c #C38C4B",
"(  c #CA8E4C",
")  c #D58C44",
"_  c #CD9344",
"`  c #CE9C46",
"'  c #C6934D",
"]  c #CC934B",
"[  c #CE994A",
"{  c #D39444",
"}  c #DA9644",
"|  c #D49B44",
" . c #DC9C44",
".. c #D3964B",
"X. c #DA934A",
"o. c #D49A4D",
"O. c #DB9C4C",
"+. c #CC8D54",
"@. c #CC9453",
"#. c #CD9952",
"$. c #C4935C",
"%. c #CA945A",
"&. c #CE9B5A",
"*. c #D39553",
"=. c #D59B53",
"-. c #DB9D53",
";. c #D5965A",
":. c #D49C5B",
">. c #DB9D5B",
",. c #E19D46",
"<. c #E99D42",
"1. c #E29D4C",
"2. c #E19E54",
"3. c #E09B59",
"4. c #DCA343",
"5. c #D6A548",
"6. c #DBA24D",
"7. c #DDAB4D",
"8. c #CDA05C",
"9. c #D5A254",
"0. c #DCA354",
"q. c #D6A953",
"w. c #D4A957",
"e. c #DEAA54",
"r. c #D5A25B",
"t. c #DCA35B",
"y. c #DEAA5B",
"u. c #E2A444",
"i. c #E5A844",
"p. c #E3A44D",
"a. c #E9A34A",
"s. c #E3AA4C",
"d. c #EAAB4E",
"f. c #F2A448",
"g. c #E5B24A",
"h. c #E2A454",
"j. c #E9A554",
"k. c #E4AA55",
"l. c #EBAA54",
"z. c #E2A55B",
"x. c #E9A55B",
"c. c #E4AB5C",
"v. c #EAAC5C",
"b. c #F2AB54",
"n. c #F1AF5B",
"m. c #E6B455",
"M. c #ECB355",
"N. c #E5B25D",
"B. c #ECB25D",
"V. c #F2B355",
"C. c #F6B45A",
"Z. c #F2B35D",
"A. c #C99966",
"S. c #D49D62",
"D. c #D99A63",
"F. c #DC9E6A",
"G. c #C79972",
"H. c #DE9F77",
"J. c #E29F63",
"K. c #D5A364",
"L. c #DCA463",
"P. c #D6A866",
"I. c #DDAA63",
"U. c #D5A46A",
"Y. c #DDA46B",
"T. c #DDAB6B",
"R. c #DFB16B",
"E. c #DDA473",
"W. c #DDAC74",
"Q. c #DAA97A",
"!. c #DEB176",
"~. c #E3A563",
"^. c #EAA665",
"/. c #E4AB63",
"(. c #EAAD63",
"). c #E3A56B",
"_. c #E4AC6B",
"`. c #EAAD6B",
"'. c #F1AE66",
"]. c #E5B264",
"[. c #ECB264",
"{. c #ECB965",
"}. c #E5B26B",
"|. c #ECB36B",
" X c #E6BA6B",
".X c #EDB96E",
"XX c #F2B364",
"oX c #F4B965",
"OX c #F1B56B",
"+X c #F3BA6C",
"@X c #F9B86A",
"#X c #E4A677",
"$X c #E4AD74",
"%X c #EAAD72",
"&X c #E6AC79",
"*X c #F1AD74",
"=X c #E5B374",
"-X c #ECB473",
";X c #EDBA74",
":X c #E6B37A",
">X c #EBB37B",
",X c #E6B879",
"<X c #ECBA7A",
"1X c #F2B573",
"2X c #F4BB73",
"3X c #FABC76",
"4X c #F2B47B",
"5X c #F4BB7A",
"6X c #F9C16D",
"7X c #ECC17E",
"8X c #F5C276",
"9X c #FBC372",
"0X c #F5C27D",
"qX c #FAC57D",
"wX c #DCAE8A",
"eX c #E7AD85",
"rX c #E7B283",
"tX c #EDB483",
"yX c #EDBC82",
"uX c #EBBA87",
"iX c #EDB68B",
"pX c #F4BB84",
"aX c #F3B889",
"sX c #EEBB91",
"dX c #F4B490",
"fX c #ECC085",
"gX c #F5C383",
"hX c #FBCA85",
"jX c #FBC488",
"kX c #F8C689",
"lX c #FBD48E",
"zX c #ECC094",
"xX c #F8C896",
"cX c #F8C6A8",
"vX c #FAD4A3",
"bX c #FCCBB7",
/* pixels */
":.;X;XT._.5X/.^ 1.1.|.r.c.` N.].].I.I./ @.=.R r.(.|.[.y.2.h.v.>Xh.h.-.F G H h.^.F G H ) J.3.(.6.v.=.<X].[ w.c.(.#.[.(.' (.j.| { ",
"w.#.r.:.L.[ z.v.k V 9.c.0.y.0.{.{./.y.%X|.q b >./.I.z.-.x.k.X.`.B.p.~.^.S d.OXO.G H G 2.J.J.=.5.| '  XI. X#.}.|._./.y.L.I.].6.k.",
"c.y.N.].0.].h.p.<.<.3.8X0.y.0.8X=./.L.(.x b |.y.[..X.Xz.O.O.-.y.B.B.).OXh.B.~.~.| a.} Z J.3.h.|.{.|._.=X_.:./.:.D.).1X5X@.[.F O.",
"e.N.k.N.v.e.O.p.,.,.^.|.o.{.0.y.c.[.9._.< -.h.' 0 z.(.0.O.}  .' 5.{.&XtX0.0.).~.u.{ c.>.^.*X(.h.{ c.y.hXT.%X5X4X`.`.).~.&.v.j.c.",
"].t.(.t.|.e.^ O.Z n.0.c./.e.9.v.y.=.] |.Y O.h.7 *.] t.[.v.X.j.6.m.y.rXiXr.`.).:.4.=./.t.^.-.O.h.6.j.[.5X;X5XOX-.x.=...-.qXc.0.h.",
">.' z.] (.t.-.....=.=.].0.y.9.|.c.y.9.o./ ) x z c.o.q T oXv.0.` 7.}.iXeXK.<X#X3Xs.=X@.:.c.2.'.v.0.] +X.X[.9.v.h.h.p.0.h.-.o.c.v.",
";.~.>.`.;.J.~.%X~.%Xy.v.0.z.c.=.#.v.j.3 g O.9 v._ 7 Y |.v.2.2.=.m.w.iXzXS.P.>Xz.s.>X:.(.XXp.h.'.-./.+XN.v.9. . .,.u.d.p. .6.B.+X",
":.%X5X3.-.z.~.~.L._.z.z.o.~.h.=.0.v.k.a p C U v.e I ].=.1 9 a r r 1 wXvX#.(.F.~.u.sX<X6.p.| X.z.>./.y./.+Xk.s.u.G L V.p.s.B.| |.",
"h ~.OX(.x.(.^ r.}.I.].XXz.(.o.2X-.k.j.k.p u 7 i < ..W a >.X.OX%Xo.p c v I.y._.3XF uX5X' 4.,.p.1XK.=Xy.`.z.z.p.,.a.a.Z. .j.+X9.+X",
"^ x.C n.} p.v.0.I.r.9.0.[.c.=.-.9.v.N.5.. + * * # & ; h.Y U n n p s U.T.N.e.~.3Xa.dXS.{ 4.a.x.>.-XK. X;X`.^.OXF ,. .l.F 2.O.m.|.",
"k @XV i.h.-X&X&X&.r.y.z./.XXC -.o.v.h.0.. * * * # # - 7 8 x.h.$X^ 8 w e.M.5.0.-.~.5X/.5. .k.~.`.^.9.7.$XxX=X5XT.z.o.z.B.c.j.k.v.",
"X.x.l. .0.`.E.&X,XR.qX(.(.t._ -.c.OXc.y.X * * * * $ * X 1.1.B h._ o./ z #.k.c.N.0.%Xy.c.B.1.~._./.e.7.=XgX_.%X;X/.9.-.|.c.-.x.v.",
"3.k b.F j._.%X$X<X}.-.c...~ o._ z.z.y.o.. * * * * * * X 0.x.h.i.p...J.).%.pX0.M.L T._.e.D O.o.^./.9.| }._.}.}.(.(.o.(.2Xc.k.[.y.",
"k k a.k l.~.;.:.Y.(.o.t.-.[.0.=.(.z./.t.. * * * * * = + b /.0.G h.c.1XL.J.4X|.~ e.,X:...C c.h.1X2XL.=.0.h.].0.|..X].I.].w.I.|.(.",
"2.1.j.1.j.(.(.kXz.L.c.OX-.(.c.-.t.h./.-.n = # * * & @ $ < Y =.-.(.v.c.A (.*.t.%X).pX:.y._ c.e.OXOXt.t.v.O.6.c.e.2X]./.].w.I.}.[.",
"} x.x.O.-.~.XX`.OX-.N _ h A +X|.*.@X2X:.y.U.o * # R T o # + y Y (.-.e.N 0.(._.&XiX~.`.(.0.B.k.e.(.L.1Xv.B.p.l.B.|./.t./.}.r.}.].",
"O.3X|.z.~.x.v.z.`.~.h.z.z.[.OX1XC |.z.~.~.|.a @ =.c._ n # $ $ @ & : T *.t.K.=X}.K.c.[.c.].(...e.y.z.1Xv.6.p.OXv.v.c.9X|.y.I.+X(.",
"e.(.`.:.( t.v.[.z.~.z.=.-.-.z.^ =.>.5X>.t.|.z & @.j.[.(.T + @ $ * # @ 0 G.5XhX].s.M.| |._._./.[ 9.{ OX+X..0.z.c.+Xc.].+Xo.9.|.].",
"y.#.T.F.5Xy.h.k.0X).h.OX9X=.0.z.*./.-X)./.-./ & ~ v.z.l.c.X 1 s % * * * . W }.m.5.P G 9.=X>XgXN.k.| v.3X:.3Xt.t.[.0.h.v.h.XX|.6.",
"9.,XkXQ.pX:.6.[ 1X).z.c.0.C ( /.`.^.%X~.`.:.*.& *.{ Z.p.d = C >.Y # * * * * < }.oXP L 9X,X#XP.v.4.4.B._.).1X~.t.z.-.[.j.p.l.[.h.",
"s._.L._./.:.}.6.e.L.`.1X>.-.x.j.x.2.O.^.y.0.{.# a u.p.n ; p  .@XU @ * * * * * 6 P.m.5.I.).K.}.+X|.I.0X*.(.z.9.z.c.c.XXv.1.h.(.9.",
"L *.~.l.j.#.;.0.5..XpX-X`.2.2.j.} k } h.|.K.K.= # < > # e -.h.d.^ * * * * = * * < gXT.8X/.h.*.5XhXW.W.z.} v.v._ O.{ c.XX..).`.9.",
"4.>.OX{ h.-X).k.D (..X#.c./.h.-.-.;.L.L.Y.xX>X= * 0 A.W ~.).^.x.( @ * * & # = & = E P.qX|.=.k =.-X=XU.XXh.OXk.0.[.[.(.z.z.(.~.|.",
"4.*.~.| k.-X4Xc.k.|.y.e.{.0.|.}.:.Y.tXuX,X5Xy.# - (.@Xk.v.2.-.~.n @ 1 e & = = = = 4 #.#.x...{ +X/.]  X(.c.(.0.(.y.2X`.`.XX~.{.@X",
"V.z.).h.h.;.%X0.m.;Xk.7.5.{.[./.:.<XyXuX>X}.|.$ * b =.-.(.-.z.).5 ; L.(.s # $ = * & e t.z.} } XX[.0.I.y.|.+Xy.y.2X|.] >.|.OX..c.",
"s.>.).k.k.Y.Y.0.0.-Xh.oXj...=.9.y.).U :.T.%XY.* * z %X).>.`.*.q 4 =.0.[.|.l @ # * * ; +.X.} j.V.oX0.6.(.=.[.|.t.0.c.9._.2X|.h.k.",
"| ~.%Xv.O.:XuX9.c.L.z.j.X.O...C 0.k.5.k.l.k.h.- # i h.z.k.b 2 @ T 7.6.[.=.S.= = * * * s v.} l.p.p.B.B.].:.6X+Xk.o.].c.L._.>.h.v.",
"4.-XY._ y.$XY.|.e.).'.OX(.-.-.c.c.l.B.d.4.M.S * # * < . . X X x 4.s.} l.XX~.c = * * * b v.j.,.j.k.e.].#.{.3X+XO.k.0.[.t.t.0.c.l.",
"e.%XkX9.OX>X&X9.y.=XOXOX_.] /.y.t.z.h.2.-.>.:.# = # < 3 3 W >.k.n.,.b.2.x...i * * * * b [.j.F Z l.9Xy..X(.c.h.C.p.XXX._.kX9.v.l.",
"v.>X%X=.+X).#X' 9.lXI.2XI.T.yXU.<X=X_.`.>.>.l = - $.>.z.*.).|.`.(.k 2.j.} 2.s * * = * . h.p.| O.].].].].(.v.v.l.,.F 0.c.;Xz.v.s.",
"` pX%Xy.I.%X#X/.y.kX|.I.I.=X,XR.uXT.).&Xz.l.a # - oXv.v.^ h.*.`.>.x.<.b.,.F z * # = = o A O.j.{.{.}.T.9...p.p.} ,.B XXx./.z.h.B.",
":XT._.L._.t./ %X,XuX-X>.|.h.{ k.k.s.7.| j.p.d # # z.`.*.|.L.`.<Xz.X.H V H F 8 * = # = o ..z.B.{.P.xXsXF j f.<.n.h.O.v.h.x._.T._.",
"_.,XL.:._.1X:._.T.Y.:.>.(.(.{ O.k.B.k.0.k...3 * = OXz.=.|.5X-XL.-.} b.H <.,.% # * * * X z.(.j.y.I.lXwX..) z.~._./.h.{.N.e.{.;XqX",
",XgX_.t.=.>.-XT.gX:X>.2.*.c.O._ 9.oX=.y.0.] O + T z.[.-.0...|.y.:...j.,.1.h.o * * * * X -.z.oX7.y.T.uXF.A.,XF.,X,X8.5.` B.N.z.|.",
"I.5X;X~.L.>.~.@.K.5X>.`.z.0.XX|.c.|./.2XL.4 * & #.] O.z.z.O.z.=.e.9.v.v.j.; * * * * * . (.h.oXh.y.:.W.eXsXxXvXfX8. Xw. Xm.k.h.c.",
"*.9.z._.y.:.1X5X4XU ^ c.~.t.|.z./.1X).<Xy.> = - ' O.(.O.XX2.XXy.+Xk.O.c.Y - * * * * * . 2.h.x.k.h.gXfXuX!.xXkX=XP.;XI.].].B.oXl.",
"(.=..X/.@.>.;XL.-Xt.=.~.' ..;X4X4X%XP.-X! = = r |.c.x.{.c.Z.oXc.[.|.=.>.e * * * * * * . t.0.h.v.z.gX`.;X&._.2X#.|.(.(.(.[.| oXF ",
"v.t.(.r.[ I.t.L.*.>.v.OX(.).L.1X5X@.L._.m = & a y./.h.XXj.-.k.h.c.OX-.g & * * * * * * b -.x.XX6.v.=.~.].6.{.9Xo.X.'.z.^.`.(.v.c.",
"OXv.8X|.r.r._./.^ c.c..X[./.L.5XT./ ;XP.  = X -.=.-.c.(.k.0.6.2.{ (.;.; * * * * * * * W `.|.0.9.z.`.`.=.c.c.k.,.} l.x.v.z.OX].c.",
"v.h.+X#.L.(.1X>.*.|.[.z.z._.)._.K.t./.y.&.r / ..-.[.c.c.h.].+Xl.X.>.+ * * * * * * * * W 3X5XI.c.c.3XJ.:.y.`.h.O.O.l.O.].+Xy.9X:.",
"B.O.(.^ }.;X_.y.0.h.[..X^.:._.L./._.L.].OXh.O.z.v.(.9.o.|.{.(.h.b > * * * * * * * * - $._._.r.e.OXU +.F.%X2Xt.v.9Xk.O.v.e.Y.P.L.",
",XY.Y.*.XXx.z.B.c.| :Xw._.;XD (.;.S OX:.6.c.].(.}.:X/ S.pXpX! w @ # * * * * * * * * ; _./.I.=X!.W.U.E.wXcX,X|.pX+.x.} @XD.eXeX/.",
"S./ :.t.=...F k.l.{.hXgXr.o.=.XXh.>.x._ y.y..X}.I.=XK.E.t 0 = * = # = # * * * * # O K.OXy.}.8XP._.,X=XW.=X{.L P L XX^.^.L _.F.B.",
"-X_.~.|.X.h.1.v.0.k.m.#X|.k.aX[.p.aXo.] m W ! Q E E 4 . # = * * * = # = * * * * $ w y.B.c.9.].9.r.}.T.iXQ._.M.K i.pXdXH.M.{.0.@X",
"/.I.y.m.h.h.O.l.{.[.2XT.z.h.1XZ t.).).S.o $ @ $ = = : 4 4 > # $ * * * * * * * * # m +Xo.` B.|.c.#.&.T.aXeX1X`.h.c.pX#X&X_.(.e.7.",
"y.9.z.c.p.v.j.h.j.6.).{.L.xXp.p g c.kXtX. $ , Q Q W A.R.,X' E + * * * * * * * & c ].].;Xk.9.v.+X(.}.pXv.| i. .z./.e.G e.%.&X/._ ",
"/.I.c...j.O.k.c.{ o.Y.oX`.4Xp.M F.[.&XA.1 * !  XL..X;X}.y.I.|.s * * * * = * @ c kXkXP.~.3X(.-.t.-XkX,Xp.u.4.k.3Xt.M.J g.<XeXD.| ",
"]./.c.y.j.oXB.l.O.9.|.D.|.(.~.*.z.L.;X$XE * I _..XqXI./.2X|.z.B.& = * * # = c ,XhXkX$X:.|./.=.^.1X>X&XXX^.).<X-X_.;X>XtX>XiXE.O.",
";XI.>.(.XX2X| k.6.9.q.E.|.h.).o.v.F.0.0.W : % (.t.[.c.c.z.x.z.XX= * & & w v $X_. X=X&..XXXXXoXO.z.-X>XZ.~.%X1X{ | =XcX&X6.pXtXh.",
"S._._.|.x.h.X.j.O.B.N.$.;XN.>...h.`.O.:.OX> # s X.0.x.v.z.c.@.e * * # b &X>XtXP.y.P.}.].p.l.V.d.-.z._.L G (.t.` m.c.8X].s.|.L.| ",
":XtX-X^.(.x.1.O.B.6.:X].kXz.k.`.~.l.~.~.j.d O 7 ^ l.v.X.'.h @ * X a / |.#XrX>X-Xc. X].e.u.i.u.V.5.l.(.B.c.5X#XbXxX` J k.tXtXoXs.",
"/.|.}.&.r.K.y.=.x.F /.|./.c.2X.X[.k.@Xz.} ..z @ g e.+Xh.h.# * * #.c.k.k.v.(.2XD._.I.}.8X+X|.0.m.m.c.{. X-X;X1X].y.5.m.U.cXbXxXL.",
"c.}././.g ^ >.j.j.B 0.|.(.I.c.2X=.z.v.XX2.h./ = = 9.|.k.].  # # T ].B.p. .k.2X/.T.P.2X|.I.].N.6Xy.k.].S.rXsXsX>Xy./.P.uXbXcX&X:.",
"h.XX(.3X~ f k.b.C.<.@XOX(.y.y.2X-.9._ y.^ (.+X5 $ 9 =.+X2Xh.5 # - I.j.{ v.|.L.P.,X5X`.<Xo.|.9.c.c.{.].T.gXtXE.5XL.c.r.,XH.K.z.z.",
"3.x.c.-.O.u p.b.b.<.0./...y.z.t..X2X^.y.=.(..XY.+ = T [.>.`.~.q & a k.XXv./.-XhXlXY.)._.c.(.[.y..X|.*.5.5.k.c.6.m.L L m.k.l.z.).",
";.>.^.z.(.3Xv.C.b.<.0.] XX].x.o.-.(.r.5Xs $ - = $ O $.`.~.OX2X@X7 * x {.+Xt.K.T.$X;.L.L.gX~.t.|.(.t./.y.I.I.:X^.5X[.9Xv.h.v.`.pX",
"P.%XhXK.r.5Xy.l.k.0...o.e.B.[.oXc.`.I.I.X * * * * % U.>.*.J.^.'.o.7 O b =.5X;X#._.%X4X~._...>.|.t.t.1X_.5X:XtX).D.*X`.h.0.>.^.`.",
"U.&X,X,XL.I.;X7XI.;X9.9.0.|.j.x.z.}.=X=X$.z z a l W 5X`.J.M ^.(.z.|.8 > r.r.}._.%X1XhX/./.z.>.z.z._.1X9.5.8Xc.O.(.@XB.C.g.{ -.V.",
"W.!.yX_.T.qX}.0X,X7Xy.v.@XB.O.j.h./.K.yXT.T.2X&._.7X_.K.~.f -.OX..:.y.6 1 t.`.~.`.`.1X(.t.[.c.z.~.`.4X`.w.o.6.h.-.3Xx.D g.m.u.K ",
",X$XhXr./.;X`.gX,Xr.y.B.[. .l.6.|.0XT.rX:X&.T.}.,X}.`.%X`.3.>.I.L.0XT._.X 5 ^.X.x./.t.OX-.z.c.c.z.^.*.A.aXpX`.;X).#XtXpX-X9.k.k.",
"y.[./.h.x.v.(.}.;X<X=.XXl. .p.} v.5XS.!.,X}.I.]..XgXI.2XOX*.*X).Q 1 < 1 * - / x.X.' o.(.[.h.k.(.[.-.t.dXtX1Xz.v.h.-X$X,X8.w.|.&X",
"L.<XP.Y.Y._.K.y.8X].L.~.2XO.j.j.x.+X-.~._.[.(.qX(.r.K.U.Y.~.^.%X. * * * * & W 5XD.Y.%X(.[.[.c.h.o.|.k.5X|.+Xz.v./.5X:.5XI.oXI.%X",
"T.<X,X&X!.!.K.}.N.e.@.@.%Xh.v.oXl.B B j.'.c.{ h.(.5X,XU.U.;X/.^.+.q 2 - 4 y A.lX!.E.pXL.v.oXh.^...| k.9.y.I.|.>.).`._._.5X:.z.2X",
";X_.=XgXkXyXT.qX{.e.`.T._.t.~.-.~.h.) (.v.k.x.} z.T.,XfXU.=X/.^.2X(._ U ].2X}./.@.=X.X_ 6.9X .c.3XOX2X}.#.2X`.1X:.|.L./.}.|.c..X"
};
