/* XPM */
static char *_646224536727[] = {
/* columns rows colors chars-per-pixel */
"64 64 244 2 ",
"   c #191315",
".  c #1E1B1C",
"X  c #221D1E",
"o  c #231E20",
"O  c #242223",
"+  c #292526",
"@  c #2A2728",
"#  c #2D2A2B",
"$  c #322E2E",
"%  c #353030",
"&  c #353334",
"*  c #3A3635",
"=  c #3D3A3B",
"-  c #413A36",
";  c #423D3C",
":  c #48413D",
">  c #413F40",
",  c #444243",
"<  c #4B4542",
"1  c #4C4B4B",
"2  c #544C47",
"3  c #544E4B",
"4  c #56524E",
"5  c #5C524C",
"6  c #514F50",
"7  c #565252",
"8  c #645B55",
"9  c #665C57",
"0  c #6C625B",
"q  c #72655D",
"w  c #75695F",
"e  c #615F60",
"r  c #676362",
"t  c #746B65",
"y  c #7A6D64",
"u  c #7E7167",
"i  c #7E736B",
"p  c #797472",
"a  c #B56D18",
"s  c #B5772C",
"d  c #B27531",
"f  c #83756B",
"g  c #85776C",
"h  c #8A7A6D",
"j  c #857A74",
"k  c #8B7D72",
"l  c #917D77",
"z  c #BD8535",
"x  c #CC882D",
"c  c #C98939",
"v  c #D48D3C",
"b  c #CE953D",
"n  c #D7983C",
"m  c #DBA53A",
"M  c #E0A13D",
"N  c #8E8176",
"B  c #948375",
"V  c #95857A",
"C  c #998779",
"Z  c #9C8B7C",
"A  c #BD9167",
"S  c #A28E7E",
"D  c #C88B45",
"F  c #D38E45",
"G  c #CD9445",
"H  c #CD934B",
"J  c #CD9949",
"K  c #D39444",
"L  c #DB9446",
"P  c #D49B44",
"I  c #DC9B44",
"U  c #D3954B",
"Y  c #D59A4D",
"T  c #DB9C4C",
"R  c #C98D50",
"E  c #D28F51",
"W  c #CC9453",
"Q  c #CC9956",
"!  c #D49651",
"~  c #DA9656",
"^  c #D49B53",
"/  c #DB9E53",
"(  c #D49C5B",
")  c #DB9D5C",
"_  c #E29C46",
"`  c #E19E4B",
"'  c #E19E53",
"]  c #DCA244",
"[  c #D9A648",
"{  c #DDA34C",
"}  c #D5A154",
"|  c #DCA354",
" . c #DEAA55",
".. c #D5A25B",
"X. c #DCA35C",
"o. c #D5A959",
"O. c #DDA95C",
"+. c #DEB25D",
"@. c #E3A543",
"#. c #E9A645",
"$. c #E3A34D",
"%. c #E4AA4D",
"&. c #EBAB4C",
"*. c #E8B24C",
"=. c #E2A454",
"-. c #EAA553",
";. c #E4AA54",
":. c #EAAA55",
">. c #E2A55B",
",. c #E9A65A",
"<. c #E4AA5C",
"1. c #EAAC5C",
"2. c #F1AD59",
"3. c #E4B356",
"4. c #EAB254",
"5. c #E5B15C",
"6. c #EBB25C",
"7. c #F5B75B",
"8. c #F2B45C",
"9. c #D59D62",
"0. c #DB9E63",
"q. c #D39968",
"w. c #E19E66",
"e. c #D5A363",
"r. c #DCA463",
"t. c #DDAA63",
"y. c #D5A369",
"u. c #D3A66E",
"i. c #DCA56A",
"p. c #D6A96A",
"a. c #DDAA6B",
"s. c #DBA474",
"d. c #DDAC74",
"f. c #DDAD7C",
"g. c #D6B17E",
"h. c #DDB27C",
"j. c #E2A563",
"k. c #E8A766",
"l. c #E4AB63",
"z. c #EAAD63",
"x. c #E2A56B",
"c. c #E4AC6B",
"v. c #E9AD6B",
"b. c #E5B165",
"n. c #ECB264",
"m. c #E5B26C",
"M. c #EBB36B",
"N. c #EAB968",
"B. c #EDB96B",
"V. c #F2B564",
"C. c #F4BA64",
"Z. c #F1B46C",
"A. c #F3BB6C",
"S. c #F9BB6A",
"D. c #E4A772",
"F. c #E4AC73",
"G. c #EBAD71",
"H. c #E4AD7D",
"J. c #ECAD7B",
"K. c #F1AE74",
"L. c #E5B173",
"P. c #ECB473",
"I. c #EDB974",
"U. c #E5B37B",
"Y. c #ECB47B",
"T. c #E5B97B",
"R. c #EDBA7B",
"E. c #F2B574",
"W. c #F4BB74",
"Q. c #F3BB7B",
"!. c #F7BA78",
"~. c #F7C26D",
"^. c #F7C378",
"/. c #FAC37C",
"(. c #928983",
"). c #948983",
"_. c #9D8D81",
"`. c #A08F86",
"'. c #A49383",
"]. c #A99585",
"[. c #A69689",
"{. c #AD9A8A",
"}. c #B29A85",
"|. c #B39D8C",
" X c #AD9D92",
".X c #B39E90",
"XX c #B6A18E",
"oX c #BCA38D",
"OX c #ADA097",
"+X c #BCA593",
"@X c #B8A596",
"#X c #BFA994",
"$X c #C6A98E",
"%X c #D5AD8A",
"&X c #DEB385",
"*X c #DBB38C",
"=X c #DBB88C",
"-X c #C1A692",
";X c #C4AA95",
":X c #CBAE95",
">X c #C4AD99",
",X c #CBAE99",
"<X c #D8AF91",
"1X c #CEB195",
"2X c #C5B29D",
"3X c #CCB29B",
"4X c #D3B394",
"5X c #DAB493",
"6X c #DDBA94",
"7X c #D3B59A",
"8X c #DAB59A",
"9X c #D6B99D",
"0X c #DBBA9B",
"qX c #E7AD82",
"wX c #E4B483",
"eX c #E7B787",
"rX c #EBB482",
"tX c #EDBC84",
"yX c #E2B58B",
"uX c #E4BB8D",
"iX c #EBBC8C",
"pX c #F4BA86",
"aX c #F2BC8B",
"sX c #E4BC93",
"dX c #E8BA93",
"fX c #E2BD9C",
"gX c #F0B590",
"hX c #C9B4A4",
"jX c #D6B9A2",
"kX c #D4BAA2",
"lX c #E2BEA1",
"zX c #DEC19E",
"xX c #EDC18A",
"cX c #F5C284",
"vX c #F9C283",
"bX c #F7C789",
"nX c #FED08C",
"mX c #E8C298",
"MX c #F6C796",
"NX c #FCD394",
"BX c #DDC2AA",
"VX c #E7C6A7",
"CX c #F7C9A5",
"ZX c #FFD4B1",
/* pixels */
"( I.m.a.m.P.~ c _ k.} O.} 5.N.O.c.H e.H >...l.m.n. .T ,.J.j.-.>.F n M ' ' n #.v ' w.w.=.<.^ Q.+.} o.l...>.v.H <.<.P Y ,.=./ T -.",
"| Q ..o...<.2.L v ' l.|  .| ~.b.O.c.P.<...| b.l.>.>.,.` 9.C.{ >.1.n &.v.~ n x L ' v.! / [ J L.+.I.J B.vXX.v.c.t.l.$.-.V.>.=.| | ",
"O.5.5.n.|  .T _ _ -.I.| b. .B.| c.O.X.=.V.X.l.M.M.=.K $.r.5.;.c.v.1.6.v.,.] 2._ E w.>.=.O.n.X.I.t.r.r.0.j.Y.P.W n.K | T / U n.V.",
" .<.O.5.b.c $.P _ ,.b.Y 1.|  .b.^ >.l./ Y X.| / l.>.T L } P ;.Y.J...X.x.^ n ' T v.z.1.=.K >.l.bXc.vXE.v.j.j.x.j.l.{ ;.z.z.n.Z.=.",
"M.} v./ W.G Y v 1.K <.n. . .z.>.}  ./.:.,.V.<.H | Z.=.:.O.3.3.aXgXe.P.x.l.%.r.l./ j.T ,.| =.Z.m.^.l.1.=.>.K U W.n.1.<.n.n.X.<.| ",
"H ( j.' j.! j.) j.l.n.X.l.X.O.Y | T ~.T =.<.^ <.Z.V.1.-.G [  .eXs.e.i.H.z.{ d.^ n.<.V.>.<.Y A.O.l.| I 8.@.=.:.] Y { <.z.,.Y / | ",
"0.K.x.j.E ' Y.0.a.>.=.Y >.X.K <.1.n.T _ v 1.G Z.=.V.v b.U 8. .aXZXQ l.D./ 6.tX) V.:.v >.! M.b.n.n.=.] n n &.#.] ;.<.A. .l.l.>.| ",
"d E.vX' V.U H P.e.B.n./ M.Y M.| { ;.P a P :.c Y ^.U 1./ pX<.J f.ZXt.V.D.Z.{ MXr.P #.Y l.) c...l.1.;.$.&._ 7.$.-.C.G Z.n.l.j.O.n.",
"D ~ T 1.$.>.X.O...} >.n.X.X.) Y 6. .] n $.-.=.T / ,.Y -.D.D s i.d.N. .c.Z.,.pX^ I #.:.) Y.r.B.Q.r.<.1.I n -.L T Y 1.A.O.B.W.<.b.",
"D V.x @.z.l.F.a...X.| l.V.c } 1.;.1.{ l.<.z.=.Y -.` -.V.pXj.Y >.3.*.[ | X.v.pX} n ;.>.c.j.}  .L.NXv.!.^ / | =.<.;.<.,.<.>.=.X.n.",
"F 2.#.I z.Y.H.y.p./.b.n.| D X.6.n.1.| t.t.n.n.$.-._ ' L F T L Y >.;./ >.;.O.l.>.6.=.>.k.c. .[ U.pXc.P.L.| >.b.6.Y 1.:.>.:.T n.Y ",
"E x :.I 1.G.D.Y.m.| 1.Y D U U | <.Y } ..b.z.1.,.T v -.,.@.@./ 0.D.q.Q.| 4.[ F.l.P I Y j.l.} [ v.r.M.v.O.| X.~.l.<.b. .-.,.;.=.K ",
"s L _ v z.) Q ) l.^ >.Y b. ./ <.z.<.n.m.l.n.Y Y Y >.Z.^ %.] =.B.x.0.Q.v.c <.pX^ c 6. .Z.W.j.^  ./ l.X.A.B.l.X.X.t.m.n.=.C.V.$.K ",
"` ` ' _ ,.>.vXj.c.<.1.^ >.1./ >.>.<.X.l.<. .Y >.>.M.m.W ~ j.,.l.z <.Y i.Y.F.Y.^ Y 1.{ n.Z.>.O.:.T { <.5.B.b.b.O.t.N.M.>.V.1.;.=.",
"` V.' ~ ,.,.Z.z.>.d Y s G /.l.X.E.W.H /./ d >.z.J b.t.m.c.>.z. .K  .z.c.qXY.l.W.X.n.5.Y l.X.Q.1.V.;.V.6.l.O.O.m.o.m.b.n.<.c.eXH.",
"T /.K.' ^ =.,.>.j.n.| >.z.j.^ D !.j.H Z.^ } 1.<.^ X.b.O.6.;.z.c.c.r.c.Q.l.O.=.l.n.m.^ J  ./ K.1.P -.V.<.1.n.M.O.| cXyX:XZ q = , ",
">.^ i.0.^ <.b.z.0.j.<.z.Y >.! ! ) !.0.l.X./ U 1.z.<.=.O.4.m 1.cXH.aXR.^.[ [ zX:XL.L./.} 3.G V.Z.^ Z.U W.z.| W.i.0XZ 5 o . X X X ",
"} m.T.H.bX| K V.G.j.b.S.c ^ r.k.K.Q.P.^ / ' ,.-.:.-.V.K  .Y W.X.c.m.m.I.zX~.S N iX7XVX<.{ P :.P.) Q./ <./ c.6Xj & o o O 8 C -X1X",
"o.R.d.i.P.O.<.U.<XyXR.Y ! z.>.k.) v.j.Q n.1.-.c -.&.8.Y r.Y.>.1.b [ +.zX; zX4XZ VXO j P.6.;.C.0.G.r.X.r.0X`.p , + O t 4X&XR <.M.",
"] U j.%.<.c.%Xi + > k sX/ ' -.x x -.8.r.o.b.O.n. .:.-.n #.#.I ] =.=.N.xX#XZ '.g Z 8 1XB.bXd.U.T T ,.F.|.e (.= o 0 1Xp. .1.>.,.1.",
"@.>.Z.] n.q.}.; & ; 6 Z rX>.U / ! 0.r.iXaX9.s.Y.!.w.w.k.` ,.T Y 1.V.c.u S 3X: O 2 sXc ! Q.T.y.V.,.mXN :  X, O ].dXl.n. .5.<.B.l.",
"P ~ ) { >.dXu 3 # O # O oXQ.j.W D.xXH./...r.c.l.W.>.,.=.) ~ j.n.| b.5.6XoXN o o 8 yXu.dXm.J P.b.9X< V @Xp 0 9XZ.X.M.~.{ n.<.c.X.",
"8.>.j.;.U lX< @ 1 > , O & 3Xa.( tXtXwXM.E.r.U >.U ' ,./ ) j.l.l.n.b.~. .&XC X * Z V 9 7 mX} m.oX; w >X0 B =XQ M.M.U 1.{  .B.W.c.",
"{ ~ v.1.^ jXo $ 6 @ 1 # @ [.5Xt.Q R m.x.H.wXr.0.D.( k.x.l.O.>.Y z.n.a.8X9 O 8 8X) 0.8X|.bXh. XO ; ;X@XB h.b.n.P.M.-.;.;.1.v.a.c.",
"P c.v.=.^ VX1 O = , 6 = @ p (.U.;.[ { 6.;XV yXP ;.;.:.b z [  .{ 6.i.>X; o 8 VXE./ -.-.$.c.{.# |.7X2Xj iX>.<.r.t.) =.1.4.6.n.v.c.",
"[ J.j.Y c.hX[.X 1 = O 1 + t 2X>X8.$.$.5.{.# $Xh.1X<.] ] 6.*.] ] ` 8X$ o @ BXc.l.1.1.v a.|.O @ 3X(.j mX-.-.| X.r...1.4.%.=.1.v.r.",
"<.Y.vXl.m.`.[.. O > * 1 # = )._.Y.J.}.;XgXj dX{.O qX) v.| n.T $.tX3 X o @ kXdXd.mXVX8X].# 5 N zXt :X>.8.;.<.>.nX| ,.%.I 8.' / z.",
"{ Q.x. .iX X[.O , e p * r 7 = h yXfX3 9 %XC @X0 9Xc.U v.c.v.F L dXO o o O X O O o X X . ].6XkXOX{.c.8.I c L R.uX0XsXsX=XsX*XrXaX",
"p.c.c.^ P.V ; * 6 &  Xt . o + l L.X.&XoX0 # X :X) H X.( P.v.F _ yX$ o o O o o o X o o $ jX2Xr f s._ _ 2.u.#Xg 2 X     O $ < 8 q ",
"L.L.c.r.v.#X. O O O e >X$ o o C L.6X1X4X5 X X }.U.X.W.I.vXj.U _ L |.@ X o o X o X $ y S 6X2X3 -X` -.z.6XN ].;X9XuXmXmXjX;X[.V 9 ",
"m.R.a.^ r.sX8 o O X $ [.9 o o l R.+X, {.f o o $ Z yX^ Z.I.J Y 1._ v.8Xy @ X o o X |.xX0X>X X3 @Xq.s.8XlX=Xm. .3.>.>.W.P.I.bXd.uX",
"L./.I.j.) c.+Xo X X 9 @Xl o o h T.L.uXd.Z oX{.< X 9 %X/ l.} | <.-.-.V.v.U.$X< X . 3X3X$XoX`.* , VXMXMXy.p.o.+.6.5.;.1.X.l...c.P.",
"H X.M.j.r.l.aXk . X u 8X1X8 X f iXB.v.3X1 iXa.4X0 . 0 yX} b.n.| ,.8.l.X.6X9 f C B 6XjX:X# . X X -XNXMX9.P.+.A.O.6.8.,./ B.) c.r.",
"n.^ c...^ c.m.0X$ X X }.1XfX# 0 *Xt.pXzX#XR.R.yX'.X X |.B.1.V./ ) ~ v.8X5   $Xj.yXqX+X;X5 o X X S M.m.X.M.M.z.B.Y C.b >.l.) R.v.",
"1.O.1...Q l.) f.y X . t ].8X$ $ 4X8X;X_.B V h 2 O X O Z ^ =.Z.>.D ( ;X; o   V %X>X,X7X+X; o X X XXA.A.K >.,.>.z.n.1.1.<.! Z.M.E.",
"C.l.W.b.Q c.l.( {.o o t 3X9X5 o < # X o o O . . + 0 ].=XK T >.v.s.+X$ C 4X|.}.f.jXj = O X X o o 7X1.$.$.-.' ,.>.Z.n.O.U G./.! >.",
",.=.>.H P.P.M.U 3Xo o u ,X3X8Xy . X X X O O 8 -XfXwXm.n.V.T ,.J.].+ X Z P.6X%XyX;XXX. o o o o 9 &Xc.Y -.,.=.<.V.X.W.X.W.d k.' ,.",
"B.X.v.H W.>.l.| 5Xo o # l :XjX;XX X o X = -XR.l.G ^ m.I.>.,.%XB ; 5 O q eX-X|.#XOX>XX 5 t o o ).aXm.=XXXm.>.m.O.s.r...( a ~ V.T ",
"q.0.W ) z.{ -.V.wX< o o X |.fX|.X o o X oX^.M.P.W F.cXaXxXjXr . 9 =X6X+XiX7X1Xh j i O ;X+Xo O {.MXN.uXN F.8XS ) H.aX1.{ / | I 6.",
"v.Q ) <.K K | =.=.B X o : hXdX5X8X.X- X = j >XfX=XiXVX:Xu O X . $ uX8XfXMX0X9X; X X u h.2XX O k 0X=X=Xu 6XZ fXU.B.~ ~.$.k.w.| 7.",
"L.m.<.>.-.{ ,.C.1.3XO X 7 jX:X>X<X*X$ o o o X - w y < X X $ ].8 @ 0X|.zX9X#X3XB . < mXO.3X. o O , = + X @ l @Xy mXO.4.<.x.qXw.2.",
"O.Y | >.=.1.=.{ -.8X- O X @ , ;XfXjX8 j ; X o o O X X O O O 5Xf.mXzX7X@Xj [.2XV O oXa.~.dXo o = V oXj O X & ;X0XwX<.;.1.MXJ.k.8.",
"b.O.;.P :.6.=.=.i.j X o X + $ #XmXdXmXuXC o - o X $ O 5 8 . 4XfX#XzXmX[.N . . X ].F.O.l.T.C l 6X} *.wX: O 3 =Xb.qX0.b 4.V.l.T 7.",
"l.t.l. .:.1.6.Y wX# X o X X 3 3X:X-X+XfXg j fX@ : 7X< l =X}..XuX7X$X X[.[.O o N &X<./ l.E.R.H.V./ E.jXh mX9X4 jXgXs.{ %.%.:.&.%.",
"W.t.X.V.V.=.{ T =X% o o o o , {.].{.+XY.:XiXF.y +XL.|.C 6X5XA xXzXj Z XX[.O p =XM.,.S.' ' P.R.1.k.gXN |.r.CX X1XQ.rX;.%.-.:.n 4.",
"9.x.v.Z.F.S 4X{ M.y o o O o o o X g |.iX<X].*X:XiX-XwX6X#X@X:X3XXX4 . O . N mXb.>.#.7.&./ >.l.m I M.7Xg.3.M.n.;.z.r.n C.S.j.V.] ",
"T.Q.P.j.P.t -X-.| >X. # _.@ o o o q -X].8X,X-Xz.:X,X1X0.oX0X#X#X0XN o + [.uXN.+.4.@.#.&.] ;.b.Z.,.pX5XZXa.m :.qXgXn.%.{ Y.J.>.%.",
"j.fXB :Xe.@X8X>.W ,X. @ 0X#X$ o o < 1X+X0 g |.>X2XoX{.|.2X_.. y 1Xt 2 :Xg.m.e.^.B.B. .5.5.1.N.b.v.R.W.{ [ 3.p.CXZXMXj.x.rX<.%.i.",
">.iXS k |.j C oXC 5 O + 6XL.@X+ X O : X X ; 7X@XXX@ B ;X>X* O X   h mX!.r.9.c.P.m.O.5.~. . .+.q.MXgXiXc.X.t.&XlXgXx.^ <.n.4.4.~.",
">.Y.P.sX9 o o . . o O i yXl.P.:X5 . X X X X j #X$ X . oXl . * f 1XM.n.t.I.NXF.!.^ O.<.>.l.B.O.t.U.l.v.l.;.{ l.p.l.<.c.%.*. .b.%.",
"5XZ Z [.h X + B 5X4X4X&Xl.=.} I.dX|.= o X X O O O O O O < |.5XU.V.n.>.m.bXL.0.~ W.M.c.<.Z.l./ [ P >.>.l.1.%.4. .6.j.J.>.*.c.a.N.",
"*X`.jXi.zXV 8 wXI >.H V.Z.V.| n.O.L.%X,X|.C h h B _.;X8XvX/ >.b n.l.c.p.i.a.c.v.v.M.^ ^.z.^ c.L.L.xXJ.!.) W.Z.=.,.k.K.G.P.H.iXs.",
"q.U.R.wX|.wX#X9XN.Y O.K ;.,.n.<.m.I.a.l.L.tXg.g.bXc.~ ' k.' z.b.Y ^ c.m.j.c.pXE.r.l.U c.) l.E.O...nX^ E.Z.z.A.*.K >.V.c.J.c.L.yX",
"U.d.iX|.[.a.kX(.xXt.{ ~.V.<.-.U a.a.T.e.Q.Q e.^.r.c.R d k.v.) ^ m.^.>.M.Z.K.Z.G.j.V.1.X.z.v.E.l.P b :.` z.S.m @.;.$.m 6.vX| n P.",
"T.d.bX2XzXI.MXNXa.O.C.1.K -.| W.I.d.xXQ t.m.P.m.P.v.v.~ E.W M.m.l.c.M.,.~ z.>.v.n.X.z./ / v.) q.Y.Q.z.v.x.pXE.Z.<.[ [ { J P  .B.",
"r.n.l.1.1.<.c.m.I...n.:.I _ Y V.U.W xXm.t.a.P./.r.Q.j.~ J.t.cX..P.c.X.' =.F H <.<.=. .z.M./ X.gXY.c.n.^ x.rXrXe.} m.F.I.Y r.P.N.",
"r.R.( c.e.c.} B.^.o.X.Z.=.:.` -.W.D E.z.z./.M...e.e.c.j.E.j.j.j...I.l.l.E.( D.E.>.6.6.| H V.;.tXM.M.=.| W.l.I.b.A.l.Y.P.W s.D.R.",
"a.R.H.d.U.R.e.N. .Q R M.>.V.8.L x F 2.k.K =.1.I.T.y.d.M.k.r.v.k.D j.m.L.NXp.J.tXK S.-.X.Y P  .O.^ W.O.) v.v.p.Q...<.Z.c.e.L.F.x.",
"M.l.R.bXbXR.R.^.<.m.c.c.X.r...z.Y | b.1.-.T >.r.wXxXy.P.v.z.A./ P n.V.b.} Q P.l.c ~.=.>.!.E.M.l.o.!.E.j.x.c.a.l.I.X.M.( F.cXNXj.",
"| O.O.I.L.L.M.l.n.O.t.t.a.pXY.P.t.o. .Z.' L 1.F.xXxXi.Q.W.O.;.1.V.;.K | } ~./.<.{ b { ) !.! G.m.c.( v.E.X.l.B.^.B.r.( a.R.( m.Z.",
"~.K Y M.P.l.r.l.z.J 5.O.P.pXU.R.} N.+.<.>.,.z.t.T.h.T./.^.l.o.n.V.V.{ 1.N.l.a.O.;.:.=.! k.X.z.a.L.Q.P.v.l.W.l.M...P.e.L.tXcXA.n.",
"2.` n.<.z...P.j.) 1.;.$.H x.R c.|  .[ 1.V.=.n.R.T.g.rXL.c.e.O.W.Z./ >.M.n.l.aXM. .A.1.1.j.| ;.Y.P.P.l.W.Z.Z.W.t.L.e.R.y.P.bX<.P ",
"P -.1.=.l.O.c.j.j.<.;.>.) j.j.>.V.C.;.>.U T Q R.h.xXtXQ.W.D O.>.j.Z.z.P.vXF.CXi.n.=.=.L =.;.4.c.NXv.z.z.z.r.W.a.a.I.e.L.a.I.M.n.",
"` =.| | k.b.c...Y.m.c.X.r.P.v.O.n.b.6./ >.1.} tXu.g.xX^.M.j.>.W.>.>.j.M.Q.tXqXx.l.V.,.8.Y 6.b Y.R.M.X.l.<.n.c.Q.r.Q.P.F.d.R.X.^."
};
