/* XPM */
static char *_646223273603[] = {
/* columns rows colors chars-per-pixel */
"64 64 230 2 ",
"   c #935519",
".  c #B56D18",
"X  c #AB6E29",
"o  c #B8772D",
"O  c #B4792C",
"+  c #AF6D37",
"@  c #B87D35",
"#  c #CB7A23",
"$  c #BD862B",
"%  c #BD8235",
"&  c #C6852D",
"*  c #D78A2D",
"=  c #C58132",
"-  c #CC8633",
";  c #CB843C",
":  c #C68A38",
">  c #C58C3C",
",  c #CC8D3C",
"<  c #D58B36",
"1  c #D18D3E",
"2  c #CD9639",
"3  c #CE943C",
"4  c #D59636",
"5  c #D59934",
"6  c #DA9C33",
"7  c #D3943E",
"8  c #DB953D",
"9  c #D39B3D",
"0  c #D99B3D",
"q  c #E59A3B",
"w  c #DCA62B",
"e  c #DCA738",
"r  c #DDB03A",
"t  c #E1A638",
"y  c #E6B437",
"u  c #BC8142",
"i  c #C38945",
"p  c #C68944",
"a  c #CA8D44",
"s  c #CB8D4B",
"d  c #D28E44",
"f  c #CD9344",
"g  c #CF9B46",
"h  c #C4914B",
"j  c #CC934B",
"k  c #CF9B4B",
"l  c #D49444",
"z  c #DA9443",
"x  c #D59B44",
"c  c #DB9B44",
"v  c #D3954B",
"b  c #DB964C",
"n  c #D59B4C",
"m  c #DB9C4C",
"M  c #CB8D51",
"N  c #D28F51",
"B  c #C69451",
"V  c #CB9453",
"C  c #CE9A54",
"Z  c #C5955A",
"A  c #CD9359",
"S  c #CD9B59",
"D  c #D49551",
"F  c #DA9752",
"G  c #D49B53",
"H  c #DB9D53",
"J  c #D29459",
"K  c #DD9658",
"L  c #D49C5B",
"P  c #DB9D5B",
"I  c #E29442",
"U  c #E49D44",
"Y  c #E19E4B",
"T  c #E19E53",
"R  c #E19F59",
"E  c #D3A246",
"W  c #DCA244",
"Q  c #DCAB47",
"!  c #D6A14B",
"~  c #DCA34D",
"^  c #DDAA4B",
"/  c #D5A254",
"(  c #DCA354",
")  c #DEAA54",
"_  c #D5A25C",
"`  c #DDA45C",
"'  c #D5A959",
"]  c #DDA95C",
"[  c #DEB25D",
"{  c #E2A544",
"}  c #EDA543",
"|  c #E3AC44",
" . c #E3A34D",
".. c #E9A54A",
"X. c #E3AB4C",
"o. c #EBAB4C",
"O. c #F2A64B",
"+. c #EAB04D",
"@. c #EBB948",
"#. c #E2A454",
"$. c #EAA654",
"%. c #E4AA54",
"&. c #EBAA55",
"*. c #E3A55B",
"=. c #E9A65B",
"-. c #E4AA5C",
";. c #EAAC5C",
":. c #F2AC55",
">. c #F1AD5A",
",. c #E3B154",
"<. c #EAB254",
"1. c #E5B15C",
"2. c #EBB25C",
"3. c #E8BC5E",
"4. c #F6B257",
"5. c #F2B35D",
"6. c #F4BB5F",
"7. c #D59661",
"8. c #D49D63",
"9. c #DB9E63",
"0. c #D1996C",
"q. c #DB9F69",
"w. c #E19E61",
"e. c #E19F6B",
"r. c #CEA168",
"t. c #D5A363",
"y. c #DCA463",
"u. c #D6A965",
"i. c #DDAA64",
"p. c #D5A369",
"a. c #DCA56A",
"s. c #DEAA6B",
"d. c #DFB16A",
"f. c #DDA472",
"g. c #DEAC73",
"h. c #D5A879",
"j. c #DCAD7A",
"k. c #DEB270",
"l. c #DDB37C",
"z. c #E2A563",
"x. c #E8A766",
"c. c #E4AC63",
"v. c #EAAD63",
"b. c #E2A56B",
"n. c #E4AC6B",
"m. c #EAAD6B",
"M. c #F2AD67",
"N. c #E5B165",
"B. c #ECB264",
"V. c #E6B865",
"C. c #EDB965",
"Z. c #E5B26C",
"A. c #EBB36B",
"S. c #E6BB6D",
"D. c #EDB96C",
"F. c #F2B564",
"G. c #F9B565",
"H. c #F5BA64",
"J. c #FABE65",
"K. c #F1B46C",
"L. c #F3BA6C",
"P. c #F9BC6D",
"I. c #E3A672",
"U. c #E9A574",
"Y. c #E4AC73",
"T. c #EBAD72",
"R. c #E5AD7D",
"E. c #ECAD7B",
"W. c #F1AE79",
"Q. c #E5B273",
"!. c #ECB473",
"~. c #E6B973",
"^. c #EDB974",
"/. c #E5B37B",
"(. c #ECB47C",
"). c #E5B97F",
"_. c #EDBA7B",
"`. c #F2B573",
"'. c #F3BB74",
"]. c #F9BD74",
"[. c #F2B47C",
"{. c #F3BC7B",
"}. c #F9BD7B",
"|. c #F2C16D",
" X c #FEC36F",
".X c #F4C175",
"XX c #FAC274",
"oX c #F5C27C",
"OX c #FAC37B",
"+X c #FBC97D",
"@X c #D5A583",
"#X c #E4AC82",
"$X c #E9AD82",
"%X c #EAA98C",
"&X c #F2AD82",
"*X c #E5B684",
"=X c #E4B787",
"-X c #ECB382",
";X c #EDBC84",
":X c #ECB38C",
">X c #ECBD8A",
",X c #F3B683",
"<X c #F3BC84",
"1X c #FABE84",
"2X c #F1B58B",
"3X c #F3BC8B",
"4X c #E4AA92",
"5X c #F1AD95",
"6X c #EBB793",
"7X c #F3B692",
"8X c #F7BE97",
"9X c #ECC184",
"0X c #EDC18A",
"qX c #F4C383",
"wX c #F9C383",
"eX c #F3CB85",
"rX c #FAC984",
"tX c #F5C48D",
"yX c #F8C589",
"uX c #FAC98B",
"iX c #F5C293",
"pX c #FAC593",
"aX c #FCCB95",
"sX c #F4C798",
"dX c #FBD293",
"fX c #FCD598",
"gX c #F8C8A8",
"hX c #FFD7A8",
"jX c #FECFB6",
"kX c #FFD2BE",
/* pixels */
"L ^.~.s.Z.!.F ; U M./ ] ! 1.V.-.v.B y.j ` _ N.Z.B.#.m ;.E.c.%.*.d 6 t R R 4 } 8 K w.R -.-.G _.[ / _ N.] *.m.j -.-.x b ;.#.H m #.",
"( C / _ _ c.;.z < H N.( ] ( .XN.] n.^.*.( / N.c.*.*.%.Y 7.H.{ z.x.4 o.M.D 4 * z R T.K n ! f ~.i.S.j A.OX*.n.n.i.v.~ %.B.*.#.#.H ",
"-.1.1.N.( ( m { I ;.L./ N.) D.( N.y._ *.K.z.z.B.K.#.d #.z.1.%.n.T.;.2.U.*.e :.v N z.*.( ] B.` ^.i.a.z.9.z.[.!.B B.l #.m H b B.F.",
") -.] 1.2.>  .z c ;.v.G ;.( ) N.n z.-.m n ( ( _ c.*.m z G E ) (.R.` ( a.H c ( F v.m.;.#.x -.c.rXn.}.{.n.z.z.z.n.z.~ %.B.v.B.K.#.",
"N./ v.H '.f n , v.f -.B.( ( B.-.H ( +X;.;.B.-.j ( K.#.$.-.,.,.3X6Xt.!.b.c.X.y.n.H c.m =.( ( F.Z.{.c.v.#.*.l l `.B.;.-.F.B.] -.H ",
"M P z.w.z.D z.P z.c.B.( c.] ] n ( n XXc #.;.n *.A.F.v.$.a Q ) :Xh.t.i.E.x.~ Y.G B.&.v.=.-.n '.-.B.~ c 5. .#.&.~ x ( -.v.*.n H ( ",
"y.T.z.z.v R !.9.n.` #.G *.*.l -.;.C.m c 1 ;.a L.*.B., 2.G 2.) >XhXA i.I.H ;.;X_ B.&.7 *.D A.N.B.C.#.U 6 6 o...m %.-.L.( c.B.*./ ",
"u m.}.T M.D v !.t.D.B.H A.n A.H ~ %.c . z &., n XXb ;.H 1X*.g j.hXi.A.T.K.~ pXy.x ..b c.P n.' z.-.%.m o.U 4.{ %.H.f D.B.c.z.*.B.",
"s H m ;.Y %.*.] _ / -.B.*.( H G 2.X.~ 8  .$.#.H H *.m T U.a O p.g.V.) n.`.T 3XG x ..&.H !.a.S.{.z.;.;.c 8 &.l m H %.L.` D.'.-.v.",
"; G.& { v.n.Y.s.L ] ( c.A.> H ;.%.;.~ c.-.v.#.c &.Y =.G.[.w.G *.;.,.! ( *.A.wXH x &.*.z.n./ ) Y.aXn.{.D H ( #.;.%.-.;.%.*.( ] A.",
"d >.o.z c.[.R.p.u.+XN.B.( p ] v.B.;.~ u.i.B.B.m $.U ..z l b l m =.-.( %.1.( s.] <.#.*.m.v.) Q /.<Xb.^.!./ *.;.2.m -.-.;.$.~ B.n ",
"K # &.0 ;.T.I.(.Z.( ;.v a v l ( -.n / _ N.N.;.;.m d =.*.{ { #.9.I.7.{.( <.n n.c.n x b z.n./ x A.t.A.Z.*./ ` XXc.-.v.( %.;.#.#.l ",
"o 1 U 1 v.K J _ v.n *.n B.( H c.v.-.B.A.N.B.n H b ] F.G X.{ #.`.b.q.{.m.> ;.1XD > 2.( F.{.z.G ) ( ;.] L.A.-.] ] ] A.B.( F.5.#.l ",
"Y T $.Y =.*.wXz.n.-.c.G ] -.H *.*.c.( n.-.( v ( *.A.Z.B G z.*.-.% -.n a.(.g.`.G m %.~ B.L.y.y.&.~ ~ %.c.D.N.N.t.i.S.A.-.F.;.%.%.",
"m G.H b =.*.m.v.*.@ b O f OXc.*.K.`.s OXL O *.B.k v.n.n.n.*.v.( x ~ B.n.R.$Xc.'.] B.;.! c.*.{.;.H.%.C.v.c.-.] A._ Z.c.B.*.Y #.m ",
"~ }.A.z.G #.;.*.z.v.( *.c.c.G p }.z.j D.G ( ;.*.G ] N.] 2.-.B.z.b.a.n.{.v.] #.N.m.A.C g ( / M.;.x #.G.-.-.D.B.] _ L.-.( ;.F.>.;.",
"-.C a.9.G -.2.v.y.*.*.v.n *.D D y.{.y.c.( H b ;.5.;.] ] <.e ;.yX#X2X(.+X) Q Q x n.Q.oX( ,.f K.K.b A.b P.v.( P.~ B.A.( ( #.G.F.( ",
"/ s.*XY.yX( l D.T.z.B.L.> G *.x.T.{.m.L P #.=.#.&.#.5.l ] n ].` n.n.D.N.1.+.t X.[.Y.Q.N.~ x &.!.y.{.G *.H #.#. .%.B.;.;.m  .#.-.",
"' _.g.f.~.] -.-.9.z.v.G n *.*.x.K m.z.C v.;.#., &.&.5.b 9.!.-.%.9 E ,.D.rXN.y ~ !.a.Q.N.2.X.J.P m.y.y.P c.;.$.&.c K. .%. .@ -.B.",
"W b -.X.*.I.G X.*.1X`.m.K #.$.- - &.>.] ] N.] B.~ %.&.8 ....0 ~ ( %.A.;.`.z.~.A.i.( H !.uXg.*Xm m ;.( > m #.v.H z.c.n ( ;.*.*.v.",
"{ *.K.c B.M x.9 -._.C ] ;.#.b H D P y.>X>X8.f.(.[.z.e.z.m =.m b ;.F.-.XXB./ u.eX].A.= G {.^.p.F.$.K.-./ B.v.v.T v.n.B.( 2.;.A.-.",
"x H P ~ #.(.`.W -.B.) C.) `.` A g.tXR.oX_ ` m.c.].#.-.#.P L *.A.( B.2.%.W ! i.B -.H , v.c.j ~.-.;.-.-./ L.c.v.M.*.B.XX^ 2.c.m.` ",
"5.w.z.%.n I.n.E D.N.^ ~ C.c.c.L ;X>X*XA.!.*.j *.v H ;.H P z.z.c.B.B.L.) n V._.D v. .b &.5.( i.` K.B.] -..X( G A.A.v ;.( ( D.{.n.",
" .G A.&.G /._ %.A.` H.%.f n / i.G h Q.b.b.I.y.q.U.P b.z.z.-.-.n B.B.` ] t.a._.` H b Y >.|.%./ c.j D.B.( / c.Z.A.A.#.%.X.2.Z.s.n.",
"x m.m.#.L sXi.) / x.=.b H , f #.#.~ ~ ;.c 2.#.x X.&.%.x $ E X. .;.H z.A >XaXuXT.H T $. . .2.1.v.] .X;.2.*.c.] n.P #.&.2.2.A.n.n.",
"! !.a.n v.$Xa.H.i.m.M.v.G -.v.%.5. .{ X.2 { $ c { { W W 3.%.~ c T F.*.b.8XsXb.c.;.>.8 z %.%.1.L D.;.L.#.#.H ( z.( ;.<.X.X.-.m.y.",
"%.(.1X;.n.R.L k A.!.OXv.S n._ L c.*.#.K W.x.M.s D z.D T.( C.b Y &.T T T.s.<X'.` B.5.c x 2.XX] '.*.;. .5.&.%.*.uX` ;. .c 5.#.T v.",
"~ <Xb.( A.R.a.! dXi.d.t.k.;Xj.qXY.E.7.*.v T z.`.x.z.v m.n.m.l Y :.z Y c.^.~.n.` H #.l ~ B.] V.` *.%.5.z - b c.c.*.-.&.| { I =.M.",
"u.Y.b._ A.L Y.Q.).wXP m.-.#.1.%.( ~ ! o.&.l %.v.H s ` J ^.m.l z q q * } <.%.;.-.H H ;.XXZ.9X@X# * } U >.7 #.=.#.*.L n.~.a.i.G ( ",
"Q.Q.n.y.m.P L Q.a.n.K K.#.l %.~ %.%.%.~ %.%.;.-.v.( '.!.oXn.l Y q q ..U  . .( H M.K.~ ;.' fX=XI z $.;.T G D.;.%.v.^.{.n.s.i.'.j ",
"Z.qXi.H ` v.n.!./.L K H ;.n , B.1./ -.m *.H ;.D.( *.v D.^.k n >...U &.&.5.n %.P.*.=.H.%._ Q.*XM J a.b._.i.[ ) ,.-.` '.!.^.rX_ A.",
"Q.oX^.y.P a.8.t.{.a.A.#./ B.-.v.z.v.Z./ v.F.-.j *.c.b H z./ ( *.$.#.G.;.( H { ;.#.#.C.~ c._ g.*X6XtXsXp.i.' [ 3.1.*.-.*.i._ s.A.",
"j ` Z.y.z.c._.!.A i =.c.*.A.z.`.!.n.n.-.A.v.( n ;.H ;.#./ N.B.#.*.v.c.( c.v.4.m T G.;. .#.{.<X*X=XfXsX_ ~.c.|.) 2.F.;.( A.P n.t.",
"N.G B.` L n.n.A.a.H -.s G A.{.`.n.a.{.A.j K.A.-.;.F.v.5.C.;.F.H H H v.z.A.] 8 m *.T #.#.#.eXT.~.S Z.Z.] B.A.v.D.n H.a #.c.P `.A.",
"c.*.c._ V c._ P G -.L.c.m.y.{.!.J i.!._ c.` ( c.*.;.~ #.n #.K.*.p D a.*.B.> c b =.z.L.x B.F z.;.! L.D.l =.=.R v.v.%.;.c.D K.!.`.",
"H.v.'.c.k Z.v.D *.;.L.x.n.m.{.L p.Z.n.G F.G n H -.B.#.#.l n *.m.P z.c.L.C. .m b ].`.] ( ( A.T.H -.;. . .$.R =.*.K.B.] b m.OXb *.",
"-.#.*.j ^.A.A.v v.v.*.( z.a.y._ c.c.V.c.c.b *.B.v.-.-.B.H.m =.z.m.`.B.( 2.X.l ( !.{.z.N.*.M.L S ` c.H Y ;.%.-.C._ ^.` ].X M.R #.",
"K.( v.V '.z.c.H H m.A.n.y.c.b.L ] L.%.;.#.] v.c.j G A.^.( -.N z.y.L H ;.%.;.p A.z.!._ _ {.u A R.*X!.z.P.*.#.;.( a.p.` G X F G. .",
"8.y.A P v.m %.H.( s.N.Z.A.x c.= m z.-.] N.D.Z._.V b.<X>X_.qXR.(.}.;.%.W K.e.z.'.D.Z.9XQ.Q./.Q.@XyXZ.1.%.T F.%.P $X3X;.X.m T x &.",
"b.A P -.l l ( #.%.|.;X] ! E.;.z.!.c 8.c.'.'.i.!.s._.>X8.v._ a.(.^.%.X.B.`.b.-.c.D.] 1.` s.~.Y./.u.%.e w &.[.U.X.2.D |.#.z.b.H H.",
"Q.A.-.-.*.~ ;.H.;.1.g.B.-.<X~ `.q.( 8.t.Z.oX!.Q.Q.S p.!.+Xv.^.b.v.N.( .X^.Y.L.%./ ( D.] j t.i.7X$X{.6.2 {.5X%Xn.B.;.<.-.e.&Xw.&.",
"] k ( %. .;.#.m #.a.-.z.1Xm   P !.pXwX^.t.Z._.Z.Q.i.s.i.c.( *.` D.c._ i./.t.c..X( ! ) L.n.i.oXn.H ~ v z.F.x / y.Y.-.X.B.pX$Xc.5.",
"N.-.] n ;.;. .#.~ 9.P.z.1XW + ` B.#XQ.Q.s.~.i.!.{.i.i.c.( l m v.A.n.~.s.;XqXoXn.c.c.-.c.m.wX(.{ 5 +.*.}.X.y r n.$X8.3 <.F.c.m H.",
"c.i.;.( &.;.2.~ ~ z.i.A.c.P P z.`.a.^.n._ n.A.oX] A.D.c.%.b O 2.c.n.(.p._.uXuXs.P =.H c.`.(./.F.R A.T.{.Z.Z._._.7Xf.~ X.o.&.X.X.",
"'.y.( F.F.( ~ m ( ! g.L.-.q.c m.8.) f.v.H v.] L.( -.-.-.-.H O 2..X<X1Xg.Q.~.g.i.A.;.P.T *.!.(.B.z.[.n.! t.iX:X/ [.(.%.X.&.&.6 <.",
"t.a.T.K.#.b #.~ 2.-.Z ^.c.P z #.z.m m.;.b l b H ;.;.#.=.( %.X.x L {.#X(.i._ Z.N.*.{ 4.o.H ( n.6 c v.n E 1.N.B.&.B.y.x H.K.z.F.W ",
"-X[.!.z.v.n m %.( Q.V.oXn.%.z.*.5.w. .&.<. .7 $.;.#.;.l *.B.E %.v.I.-X(.A.N.S.1.<.e } o.{ %.N.L.c.,X4XjXi.e %.&X2XF.X.~ E.E.*.X.",
"c.Z.n.B t.G *.*.d ( D.c.` P.D.*.B.P.#.d v.m n ( L.*.H %.A._ B.-.&.%.-.`.i.n.t..XD.D.] 1.;.-.C.V.Z.^.^.^ Q [ u.gXkXsXz.a.-X;.%.a.",
"-.B.v.y.X p -.$.< T A.A.-.] .XG n *.( #.*.;.B.f B.B.N.l L -.B.5.x n 2.`.t._ n.A.S.-.1.L.) ( -.r.iX8X-XI.] i./.gX4Xa.G -.C.%.<.|.",
"*.v.;.v.O = :.:.O.;.K.H z.-.A.c.c._ ( H v.K.] ( j ].*.c.K.c.B.m %.;.B.y._.aXT.{.D _ c.) N.D.-.d.!.n.A.c.%.! c.p.i.-.n.X.@.) N.| ",
"K R *.H -.~ 5.4.U  .n ( *.] H F.B.v.*.z.m.'.H n.y.A.*.}.v.F.m %.F.B.-.!.wX/.q.L '.A.c.;.D.c.L E E ( ] B.2.%.<.~ 2.*.W.*.X.v.Y.S.",
"L z.`.P `.L.b %.c *.j D.L.F.( A.] Q.V y.`.n.L L z.J x.R L.T *.f A.-.N.t.a.s.n.n.m.D.L }.v.G v.Q.Y.tXE.[.K {.K.#.;.b.W.T.!.R.:Xf.",
"p.Q._.Q.t.v.'.N.N.G %.f *.;.;.-.Z.^.s.z.n.!._ t.wXz.K P x.#.c.v.n / n.A.b.n.1X[.y.c.v n.` n.m.] _ rXG `.K.v.L.o.l *.C.n.-Xn.Q.:X",
"l.j.;Xd.i.s.oXu.eX] / XXF.;.*.v s.s.).t.{.S i.oXa.n.s + c.x.H / A.'.` A.m.M.m.K.z.F.c.( v.m.{.-.g 9 &.m v.P.e | %.~ e ;.wX^ g Q.",
"_.Q.rX` Z.Q.{.rXu.] F.;.z #. .].!.l.>XS s.Z.^.Z.A.m.x.K `.j A.Z.s.v.m.z.F M.*.m.A.( v.H ( m.P 0.(.{.c.m.b.,X(.!.-.~ X.~ g x ^ D.",
"t.B.z.-.;.-.A.A._./ F.%.c { b A.!.Z 0XV.i.i.Q.oXy.OXz.K !.a.qXt.~.n.*.#.R d j -.-.%.#.v.B.P P 7X-XB.B.H b.[.;X_ / Z.Y.^.n y.Y.L.",
"t.{.L n.y.n./ S..X` _ K.Y :.Y %.`.p `.c.;.+XB.` p.t.n.x.`.y.z.z.L `.z.v.'.S Y.`.-.2.;.#.j B.%.oXA.B.%.( '.n.^.N.L.i.(.!.B f.f.^.",
"n._.l.g./._.t.B.( G M A.*.K.>.z - z >.v.z #.c.'.(.r.s.Q.m.z.x.z.a *.Q.Z.dXp.R.<Xf  X%.T n m %._ / {.` P m.n.i.{._ -.`.A.y.R.Y.I.",
"A.n._.yXtX_._.+X-.Z.n.Z.y.y.` x.v ( B.-.%.Y #.t.).9Xp.!.m.v.L.( b F.D.c./ S !.c.: |.#.*.}.K.`.v.` '.`.z.z.n.n.Z.L.*.A.L Y.tXdXz.",
"/ ( ` _.Q.Z.A.i.B.] i.i.s.qX(.^.i._ ) L.H b x.n.0X0Xs.{.'.( -.&.2.%.x ( ( D.+X-.~ 4 m P {.s T.n.s.L m.`.P c.^.'.D.t.L u.{.S A.F.",
" Xl n A.!.n.y.v.v.k 2.` Q.<XQ._.G V.,.-.*.=.v.i.*Xl.~.qX.XN.-.B.F.B.~ -.C.c.c.] ;.&.#.G x.y.v.s.Q.{.!.m.z.'.c.S._ Q.t.Q.;XqX'.2.",
":. .B.-.N.` A.*.` %.%.( s b.M n.( ) ^ c.F.#.B._.).l.;XQ.n.t.y.'.K.T *.K.A.z.tXZ.( |.;.;.*.( %.(.!._.x.K.L.`.'.] ~.t._.p.~.wX-.n ",
"z $.;.] -.i.c.y.z.c.%.;.P y.z.z.D.H.%.` b H G _.l.9X;X_.^.i y.*.c.K.v.!.wXY.gXa.v.( #.b %.#.<.a.fXm.v.v.v.*.^.n.s._.t.Q.s.^.A.B.",
"m H #.( z.Z.n._ [.n.n.` y.A.m.*.B.B.2.H ( ;./ ).h.l.0X{.A.-.*.].*.R z.A._.<X#Xb.v.5.;.v.m <.x !._.!.( c.-.v.n.(.y.}.!.Y.g.(.` XX"
};
